<svg width="28" height="38" viewBox="0 0 28 38" fill="none" xmlns="http://www.w3.org/2000/svg">
<path fill-rule="evenodd" clip-rule="evenodd" d="M10.6507 38C6.4386 38 3.15203 36.3207 1.39611 33.2736C0.482753 31.6889 0 29.8184 0 27.8642V0.204052C0 0.091411 0.0914065 0 0.203404 0C0.316045 0 0.407457 0.091411 0.407457 0.204052V27.8642C0.407457 29.7469 0.87088 31.5473 1.7482 33.0695C3.42816 35.9866 6.58986 37.5926 10.6507 37.5926C11.0524 37.5926 11.4604 37.5687 11.8634 37.5205L27.3159 35.9454C27.4272 35.9358 27.5276 36.0162 27.5386 36.127C27.5502 36.2389 27.469 36.3394 27.357 36.3503L11.9078 37.9247C11.4926 37.9743 11.0685 38 10.6507 38Z" fill="#B8DFE3"/>
</svg>
