<svg width="9" height="40" viewBox="0 0 9 40" fill="none" xmlns="http://www.w3.org/2000/svg">
<mask id="mask0_1_1957" style="mask-type:alpha" maskUnits="userSpaceOnUse" x="-12" y="-17" width="29" height="96">
<path d="M-5.28136 78.6266L-11.5111 -6.55735C-12.1383 -11.7188 -12.2736 -16.2095 -7.11214 -16.8366C-1.94877 -17.4676 4.77476 -13.8958 5.4019 -8.73376L16.7642 76.179L-5.28136 78.6266Z" fill="white"/>
</mask>
<g mask="url(#mask0_1_1957)">
<path fill-rule="evenodd" clip-rule="evenodd" d="M3.38371 34.8765L3.28498 34.8034L3.35807 34.7053L3.45679 34.7784L3.38371 34.8765Z" fill="#DC402E"/>
<path fill-rule="evenodd" clip-rule="evenodd" d="M1.7257 39.5082C1.66991 39.5082 1.62438 39.4691 1.60835 39.4082C1.5904 39.3441 1.64106 39.2864 1.70582 39.269C1.71351 39.2671 1.72121 39.2658 1.72954 39.2658C1.78277 39.2658 1.84304 39.3088 1.84496 39.3665C1.84753 39.4454 1.8129 39.4947 1.74686 39.5063C1.7398 39.5076 1.73275 39.5082 1.7257 39.5082Z" fill="#DC402E"/>
<path fill-rule="evenodd" clip-rule="evenodd" d="M2.26846 31.2141L2.17417 31.1897L2.1979 31.0961L2.2922 31.1198L2.26846 31.2141Z" fill="#DC402E"/>
<path fill-rule="evenodd" clip-rule="evenodd" d="M3.54891 37.641L3.49633 37.5288L3.60919 37.4762L3.66177 37.5884L3.54891 37.641Z" fill="#DC402E"/>
<path fill-rule="evenodd" clip-rule="evenodd" d="M3.18756 23.3338C3.15806 23.3338 3.12793 23.3261 3.09843 23.3094C3.0247 23.2696 3.01701 23.1722 3.0574 23.0984C3.08112 23.0561 3.13498 23.0286 3.18756 23.0286C3.21705 23.0286 3.2459 23.0375 3.26834 23.0581C3.34208 23.1247 3.35618 23.1991 3.30938 23.269C3.27988 23.312 3.23564 23.3338 3.18756 23.3338Z" fill="#DC402E"/>
<path fill-rule="evenodd" clip-rule="evenodd" d="M2.11834 19.1153C2.09718 19.1153 2.07473 19.1102 2.05293 19.0993C1.99329 19.0704 1.98303 18.9941 2.01253 18.9345L2.17798 18.8948C2.23826 18.9448 2.25173 19.0031 2.21774 19.0595C2.19529 19.0967 2.15874 19.1153 2.11834 19.1153Z" fill="#DC402E"/>
<path fill-rule="evenodd" clip-rule="evenodd" d="M5.70541 24.4561L5.70157 24.3272L5.83047 24.3233L5.83496 24.4529L5.70541 24.4561Z" fill="#DC402E"/>
<path fill-rule="evenodd" clip-rule="evenodd" d="M8.94417 21.221L8.82938 21.1652L8.88581 21.0505L8.99997 21.1069L8.94417 21.221Z" fill="#DC402E"/>
<path fill-rule="evenodd" clip-rule="evenodd" d="M0.394687 18.0745C0.372887 18.0745 0.349803 18.0706 0.32672 18.0629C0.244005 18.0341 0.218357 17.9347 0.247853 17.8507C0.267089 17.7956 0.33185 17.7532 0.394687 17.7532C0.417129 17.7532 0.439571 17.7584 0.459448 17.7718C0.547934 17.8289 0.575506 17.9033 0.538958 17.9834C0.512027 18.0431 0.456884 18.0745 0.394687 18.0745Z" fill="#DC402E"/>
<path fill-rule="evenodd" clip-rule="evenodd" d="M2.87518 15.2759L2.71294 15.2355L2.75398 15.0739C2.77065 15.0611 2.7931 15.0553 2.81554 15.0553C2.85722 15.0553 2.89955 15.0752 2.91622 15.1137C2.94508 15.1849 2.93097 15.2426 2.87518 15.2759Z" fill="#DC402E"/>
<path fill-rule="evenodd" clip-rule="evenodd" d="M3.95006 17.4874L3.91928 17.3912L4.01483 17.3604L4.04625 17.4566L3.95006 17.4874Z" fill="#DC402E"/>
<path fill-rule="evenodd" clip-rule="evenodd" d="M6.53173 25.5155L6.48104 25.5104L6.48553 25.4597L6.53622 25.4648L6.53173 25.5155Z" fill="#DC402E"/>
<path fill-rule="evenodd" clip-rule="evenodd" d="M1.28521 17.8457C1.22301 17.8457 1.1685 17.8053 1.14157 17.7393C1.11015 17.6623 1.1653 17.5835 1.2416 17.5527C1.25571 17.5469 1.2711 17.5443 1.28649 17.5443C1.34933 17.5443 1.41858 17.5873 1.4282 17.6527C1.44294 17.7489 1.40768 17.8156 1.32817 17.8393C1.31342 17.8438 1.29931 17.8457 1.28521 17.8457Z" fill="#DC402E"/>
<path fill-rule="evenodd" clip-rule="evenodd" d="M2.24768 25.3353C2.19958 25.3353 2.16047 25.3129 2.13225 25.2686C2.08865 25.2 2.10981 25.1173 2.17714 25.0647C2.19958 25.0474 2.22459 25.0397 2.25024 25.0397C2.29898 25.0397 2.34835 25.0673 2.3817 25.1096C2.42658 25.168 2.41055 25.2808 2.33617 25.3135C2.30475 25.3283 2.27461 25.3353 2.24768 25.3353Z" fill="#DC402E"/>
<path fill-rule="evenodd" clip-rule="evenodd" d="M2.09639 19.6565C2.09511 19.6565 2.09447 19.6565 2.09318 19.6565C2.0111 19.6553 1.95467 19.5918 1.94762 19.5058C1.94057 19.4244 2.01623 19.3661 2.09767 19.3597C2.10024 19.3597 2.1028 19.3597 2.10537 19.3597C2.17783 19.3597 2.25606 19.4321 2.24388 19.5103C2.22849 19.6046 2.17654 19.6565 2.09639 19.6565Z" fill="#DC402E"/>
<path fill-rule="evenodd" clip-rule="evenodd" d="M0.274134 22.584C0.256821 22.584 0.239507 22.5801 0.223476 22.5718C0.138832 22.5269 0.107412 22.4609 0.134985 22.3852C0.156146 22.3236 0.210652 22.2903 0.273493 22.2903C0.288883 22.2903 0.305554 22.2922 0.321585 22.2961C0.399817 22.3159 0.430597 22.4044 0.410077 22.4827C0.39597 22.5378 0.334411 22.584 0.274134 22.584Z" fill="#DC402E"/>
<path fill-rule="evenodd" clip-rule="evenodd" d="M2.80364 26.3577C2.80108 26.3577 2.79851 26.3577 2.7953 26.3571C2.71515 26.3532 2.66128 26.2897 2.65743 26.2051C2.65358 26.1249 2.72925 26.0704 2.80941 26.0672C2.8107 26.0672 2.81198 26.0672 2.81326 26.0672C2.88508 26.0672 2.96268 26.1422 2.94729 26.2192C2.92997 26.309 2.87931 26.3577 2.80364 26.3577Z" fill="#DC402E"/>
<path fill-rule="evenodd" clip-rule="evenodd" d="M5.68759 23.3739C5.62411 23.3739 5.57922 23.3259 5.57281 23.2585C5.56703 23.1963 5.62475 23.1502 5.68759 23.1444C5.68951 23.1444 5.69208 23.1444 5.69464 23.1444C5.74979 23.1444 5.81135 23.1995 5.80237 23.2592C5.79147 23.3335 5.75043 23.3739 5.68759 23.3739Z" fill="#DC402E"/>
<path fill-rule="evenodd" clip-rule="evenodd" d="M3.08482 29.0059L3.01749 28.9026L3.12072 28.8353L3.18805 28.9385L3.08482 29.0059Z" fill="#DC402E"/>
<path fill-rule="evenodd" clip-rule="evenodd" d="M2.93217 7.59941L2.89946 7.52567L2.97322 7.49297L3.00593 7.5667L2.93217 7.59941Z" fill="#DC402E"/>
<path fill-rule="evenodd" clip-rule="evenodd" d="M1.0731 16.3754L0.957681 16.3395L1.00513 16.1869C1.01988 16.1773 1.03911 16.1722 1.05835 16.1722C1.10002 16.1722 1.14363 16.194 1.15773 16.2337C1.17633 16.2876 1.1712 16.3318 1.14363 16.3626L1.14298 16.362C1.14042 16.362 1.13786 16.362 1.13529 16.362C1.11349 16.362 1.09169 16.3665 1.0731 16.3754Z" fill="#DC402E"/>
<path fill-rule="evenodd" clip-rule="evenodd" d="M0.111855 14.0022L0.0919765 13.8438L0.250365 13.8233L0.270884 13.9823L0.111855 14.0022Z" fill="#DC402E"/>
<path fill-rule="evenodd" clip-rule="evenodd" d="M0.585496 16.1304C0.52715 16.0836 0.511762 16.0278 0.54382 15.9727C0.565619 15.9355 0.601524 15.9169 0.641276 15.9169C0.660511 15.9169 0.681028 15.9214 0.701545 15.931C0.759249 15.9579 0.770149 16.031 0.74322 16.0887L0.585496 16.1304Z" fill="#DC402E"/>
<path fill-rule="evenodd" clip-rule="evenodd" d="M0.163905 18.4033C0.119657 18.4033 0.0792558 18.3764 0.0555284 18.3309L0.120298 18.1796C0.133123 18.1732 0.148514 18.1699 0.163905 18.1699C0.210077 18.1699 0.260097 18.1975 0.270999 18.2443C0.288955 18.3181 0.265869 18.3713 0.20623 18.395C0.192122 18.4008 0.178013 18.4033 0.163905 18.4033Z" fill="#DC402E"/>
<path fill-rule="evenodd" clip-rule="evenodd" d="M1.34911 20.3582L1.335 20.1941L1.49918 20.18L1.51329 20.3435L1.34911 20.3582Z" fill="#DC402E"/>
<path fill-rule="evenodd" clip-rule="evenodd" d="M0.741251 17.2777L0.711106 17.1629L0.825271 17.1334L0.856057 17.2475L0.741251 17.2777Z" fill="#DC402E"/>
<path fill-rule="evenodd" clip-rule="evenodd" d="M1.62885 19.0808C1.55639 19.0808 1.4974 19.0327 1.47239 18.9583L1.38518 19.027C1.37877 19.0276 1.37236 19.0282 1.36659 19.0282C1.30888 19.0282 1.26335 18.9872 1.24732 18.925C1.23193 18.8609 1.28451 18.8038 1.34864 18.7884L1.4756 18.8513L1.60513 18.7512C1.61475 18.7487 1.62436 18.7474 1.63462 18.7474C1.70965 18.7474 1.79365 18.8096 1.79429 18.8904C1.79429 18.9987 1.74492 19.0648 1.6545 19.0789C1.64553 19.0802 1.63719 19.0808 1.62885 19.0808Z" fill="#DC402E"/>
<path fill-rule="evenodd" clip-rule="evenodd" d="M0.2765 23.7498C0.225839 23.7498 0.174537 23.7287 0.131571 23.6889C0.0552582 23.619 0.0744966 23.5004 0.145038 23.424C0.175819 23.3913 0.225197 23.3727 0.275217 23.3727C0.327802 23.3727 0.380388 23.3933 0.409887 23.4382C0.433614 23.4734 0.448363 23.5081 0.454776 23.5414C0.442592 23.5388 0.430408 23.5376 0.418224 23.5376C0.356661 23.5376 0.298945 23.5683 0.283554 23.6293C0.272652 23.6729 0.277141 23.7152 0.29638 23.7485C0.289326 23.7492 0.282913 23.7498 0.2765 23.7498Z" fill="#DC402E"/>
<path fill-rule="evenodd" clip-rule="evenodd" d="M0.54878 19.7592C0.498764 19.7592 0.45965 19.7226 0.446184 19.6694L0.535956 19.5514L0.653299 19.6412C0.652658 19.7085 0.621238 19.7508 0.564169 19.7579C0.559039 19.7585 0.553909 19.7592 0.54878 19.7592Z" fill="#DC402E"/>
<path fill-rule="evenodd" clip-rule="evenodd" d="M0.595694 19.461C0.592488 19.461 0.589283 19.461 0.585435 19.4604C0.462959 19.4508 0.392423 19.3886 0.385369 19.2847C0.378316 19.1815 0.452699 19.1026 0.561068 19.0853C0.569404 19.084 0.57774 19.0834 0.585435 19.0834C0.676491 19.0834 0.746386 19.1661 0.761134 19.2603C0.775242 19.3501 0.695086 19.461 0.595694 19.461Z" fill="#DC402E"/>
<path fill-rule="evenodd" clip-rule="evenodd" d="M0.642454 17.1261C0.605901 17.1261 0.569989 17.1159 0.541772 17.0909C0.445578 17.0069 0.424416 16.912 0.483415 16.8209C0.52061 16.7632 0.578966 16.7337 0.642454 16.7337C0.679008 16.7337 0.716203 16.7433 0.752756 16.7619C0.84895 16.8119 0.861775 16.9363 0.811755 17.0319L0.795082 17.055L0.782255 17.0825L0.728387 17.1069C0.701453 17.1197 0.671953 17.1261 0.642454 17.1261Z" fill="#DC402E"/>
<path fill-rule="evenodd" clip-rule="evenodd" d="M0.41879 23.8181C0.402756 23.8181 0.386722 23.8149 0.369405 23.8091C0.336055 23.7975 0.311683 23.7757 0.29629 23.7482C0.27705 23.7148 0.27256 23.6725 0.283463 23.6289C0.298855 23.568 0.356578 23.5372 0.418149 23.5372C0.430335 23.5372 0.44252 23.5385 0.454706 23.5411C0.457271 23.5417 0.460478 23.5424 0.463044 23.543C0.531669 23.5603 0.585543 23.6539 0.549627 23.7232C0.516277 23.7854 0.471381 23.8181 0.41879 23.8181Z" fill="#DC402E"/>
<path fill-rule="evenodd" clip-rule="evenodd" d="M3.93041 21.8487C3.91886 21.8487 3.90732 21.8467 3.89578 21.8429C3.83678 21.8249 3.80792 21.7679 3.82139 21.7037C3.83101 21.6537 3.87975 21.6268 3.93041 21.6268C3.94067 21.6268 3.95029 21.6274 3.96055 21.6293L4.03429 21.7685C4.00992 21.8211 3.97337 21.8487 3.93041 21.8487Z" fill="#DC402E"/>
<path fill-rule="evenodd" clip-rule="evenodd" d="M1.50877 10.1274L1.46453 10.0146L1.57738 9.97034L1.62162 10.0819L1.50877 10.1274Z" fill="#DC402E"/>
<path fill-rule="evenodd" clip-rule="evenodd" d="M5.74812 6.39595L5.7385 6.31836L5.81612 6.30938L5.82574 6.38697L5.74812 6.39595Z" fill="#DC402E"/>
<path fill-rule="evenodd" clip-rule="evenodd" d="M1.57182 14.0639C1.5218 14.0639 1.48012 14.0286 1.46409 13.9748C1.44678 13.9164 1.49231 13.8626 1.5513 13.8459C1.55836 13.8433 1.56669 13.842 1.57503 13.842C1.62312 13.842 1.67763 13.8799 1.68019 13.9318C1.6834 14.0043 1.65262 14.0498 1.59298 14.062C1.58593 14.0633 1.57888 14.0639 1.57182 14.0639Z" fill="#DC402E"/>
<path fill-rule="evenodd" clip-rule="evenodd" d="M1.41406 11.6087C1.38072 11.6087 1.3525 11.5939 1.33134 11.5638L1.35699 11.4105L1.51026 11.4362L1.48461 11.5894C1.4596 11.6023 1.43587 11.6087 1.41406 11.6087Z" fill="#DC402E"/>
<path fill-rule="evenodd" clip-rule="evenodd" d="M0.6158 10.8682L0.595279 10.7143L0.749828 10.6944L0.769707 10.8483L0.6158 10.8682Z" fill="#DC402E"/>
<path fill-rule="evenodd" clip-rule="evenodd" d="M1.32603 10.493C1.25932 10.4654 1.23046 10.4186 1.24457 10.359C1.2574 10.3064 1.30229 10.2762 1.35681 10.2762C1.36387 10.2762 1.37092 10.2762 1.37862 10.2775C1.38311 10.2782 1.38696 10.2788 1.39081 10.2801C1.38119 10.3327 1.4139 10.3846 1.45815 10.4122L1.32603 10.493Z" fill="#DC402E"/>
<path fill-rule="evenodd" clip-rule="evenodd" d="M1.33522 13.6812L1.17683 13.676C1.13515 13.6151 1.13643 13.5593 1.18196 13.5177L1.34036 13.5228L1.33522 13.6812Z" fill="#DC402E"/>
<path fill-rule="evenodd" clip-rule="evenodd" d="M0.178848 15.6783C0.122411 15.6783 0.0788014 15.6359 0.0672576 15.575C0.0563551 15.5135 0.108302 15.4634 0.169869 15.4525C0.174358 15.4519 0.17949 15.4513 0.18462 15.4513C0.236567 15.4513 0.295569 15.4981 0.292362 15.5551C0.287873 15.6289 0.251959 15.6718 0.18975 15.6776C0.185902 15.6783 0.182696 15.6783 0.178848 15.6783Z" fill="#DC402E"/>
<path fill-rule="evenodd" clip-rule="evenodd" d="M0.790661 17.8731C0.754742 17.8731 0.724596 17.8558 0.702789 17.8231L0.736141 17.6666L0.892643 17.6987L0.859931 17.8558C0.835558 17.8673 0.811827 17.8731 0.790661 17.8731Z" fill="#DC402E"/>
<path fill-rule="evenodd" clip-rule="evenodd" d="M0.539412 13.2199L0.420132 13.1987L0.441936 13.0788L0.561216 13.1013L0.539412 13.2199Z" fill="#DC402E"/>
<path fill-rule="evenodd" clip-rule="evenodd" d="M1.11545 14.7904L1 14.7859L1.00449 14.6718L1.1193 14.6756L1.11545 14.7904Z" fill="#DC402E"/>
<path fill-rule="evenodd" clip-rule="evenodd" d="M1.37204 16.72C1.36307 16.72 1.35473 16.7194 1.34511 16.7181C1.26303 16.7066 1.21237 16.6399 1.20916 16.5552L1.10912 16.5944C1.045 16.5847 1.00652 16.5296 1.00973 16.4616C1.01165 16.4212 1.0373 16.3911 1.07257 16.3751C1.09117 16.3661 1.11297 16.3616 1.13477 16.3616C1.13734 16.3616 1.1399 16.3616 1.14247 16.3616L1.14311 16.3622L1.24187 16.4559L1.39128 16.3994C1.47144 16.4033 1.55352 16.4963 1.52787 16.5815C1.5003 16.6719 1.44579 16.72 1.37204 16.72Z" fill="#DC402E"/>
<path fill-rule="evenodd" clip-rule="evenodd" d="M0.113409 12.2256L0.0730091 12.1301L0.07365 12.1281L0.071726 12.1275L0.0653131 12.1121L0.17946 12.064L0.227556 12.1782L0.113409 12.2256Z" fill="#DC402E"/>
<path fill-rule="evenodd" clip-rule="evenodd" d="M0.158955 17.0465C0.153184 17.0465 0.147413 17.0458 0.141001 17.0452C0.0852146 17.0362 0.0531535 16.9881 0.0563596 16.9291L0.172421 16.8445L0.256421 16.9605C0.239108 17.0163 0.205123 17.0465 0.158955 17.0465Z" fill="#DC402E"/>
<path fill-rule="evenodd" clip-rule="evenodd" d="M0.291824 16.783C0.275793 16.783 0.259762 16.7804 0.244372 16.774C0.132796 16.7304 0.0847023 16.6535 0.107146 16.5547C0.127666 16.4668 0.202049 16.4155 0.292465 16.4155C0.304007 16.4155 0.314908 16.4162 0.32645 16.4175C0.426484 16.4309 0.477142 16.5367 0.463676 16.6368C0.453416 16.7118 0.373261 16.783 0.291824 16.783Z" fill="#DC402E"/>
<path fill-rule="evenodd" clip-rule="evenodd" d="M0.139226 14.922C0.0571431 14.922 0.00263544 14.8438 7.03435e-05 14.7604C-0.00249475 14.6912 0.0654802 14.6136 0.140509 14.6136C0.147563 14.6136 0.154617 14.6142 0.162313 14.6161C0.259786 14.6366 0.311088 14.6937 0.305957 14.7784C0.300827 14.8624 0.233493 14.9188 0.143715 14.922C0.142432 14.922 0.140509 14.922 0.139226 14.922Z" fill="#DC402E"/>
<path fill-rule="evenodd" clip-rule="evenodd" d="M0.198548 14.4656L0.0920988 14.4579L0.100436 14.3521L0.206244 14.3598L0.198548 14.4656Z" fill="#DC402E"/>
<path fill-rule="evenodd" clip-rule="evenodd" d="M1.00809 14.6271C1.00103 14.6271 0.993976 14.6265 0.986922 14.6259L1.0472 14.5733L0.95101 14.4617C0.903555 14.4623 0.865079 14.4854 0.847764 14.5226C0.803516 14.4315 0.816982 14.3507 0.887523 14.2898C0.923435 14.2597 0.964478 14.2449 1.00616 14.2449C1.05811 14.2449 1.11197 14.2674 1.15558 14.3103C1.23125 14.3828 1.20752 14.5027 1.13442 14.5778L1.11261 14.5957L1.09338 14.6169L1.0363 14.6246C1.02668 14.6259 1.01706 14.6271 1.00809 14.6271Z" fill="#DC402E"/>
<path fill-rule="evenodd" clip-rule="evenodd" d="M0.531056 13.7079C0.459877 13.7079 0.388698 13.6624 0.346375 13.5957C0.292509 13.5104 0.328421 13.3603 0.433586 13.3244C0.470138 13.3122 0.504123 13.3058 0.535545 13.3058C0.610572 13.3058 0.668926 13.3417 0.704836 13.4116C0.755495 13.5104 0.716379 13.6194 0.617626 13.6829C0.590052 13.7002 0.560554 13.7079 0.531056 13.7079Z" fill="#DC402E"/>
<path fill-rule="evenodd" clip-rule="evenodd" d="M0.379516 12.9343L0.337206 12.9119L0.359002 12.8696L0.401312 12.8914L0.379516 12.9343Z" fill="#DC402E"/>
<path fill-rule="evenodd" clip-rule="evenodd" d="M0.192898 11.8875L0.176859 11.869L0.212784 11.8389L0.226257 11.8542L0.192898 11.8875Z" fill="#DC402E"/>
<path fill-rule="evenodd" clip-rule="evenodd" d="M0.556069 11.7242L0.462451 11.7101L0.477199 11.6165L0.570175 11.6312L0.556069 11.7242Z" fill="#DC402E"/>
<path fill-rule="evenodd" clip-rule="evenodd" d="M1.9172 9.94493L1.82999 9.89619L1.87808 9.80963L1.96529 9.85772L1.9172 9.94493Z" fill="#DC402E"/>
<path fill-rule="evenodd" clip-rule="evenodd" d="M0.602341 5.63644C0.570275 5.63644 0.540134 5.62425 0.511275 5.59989C0.449068 5.54731 0.445221 5.46203 0.494602 5.3915C0.519613 5.35559 0.558091 5.3402 0.599135 5.3402C0.635048 5.3402 0.672244 5.35239 0.703668 5.37483C0.763951 5.41715 0.781907 5.52936 0.720341 5.58386C0.68058 5.61848 0.640178 5.63644 0.602341 5.63644Z" fill="#DC402E"/>
<path fill-rule="evenodd" clip-rule="evenodd" d="M0.49006 4.23453L0.488136 4.189L0.533668 4.18707L0.535592 4.23261L0.49006 4.23453Z" fill="#DC402E"/>
<path fill-rule="evenodd" clip-rule="evenodd" d="M5.59311 12.2222L5.52128 12.185L5.55912 12.1126L5.63095 12.1504L5.59311 12.2222Z" fill="#DC402E"/>
<path fill-rule="evenodd" clip-rule="evenodd" d="M0.179057 8.42594L0.155333 8.34325L0.23933 8.31953L0.262414 8.40287L0.179057 8.42594Z" fill="#DC402E"/>
<path fill-rule="evenodd" clip-rule="evenodd" d="M1.70383 0.917915C1.64547 0.917915 1.59738 0.86661 1.58263 0.806325C1.56788 0.744117 1.61982 0.661387 1.69036 0.661387H1.69101C1.77501 0.662028 1.82632 0.700508 1.83658 0.770412C1.84684 0.839674 1.80003 0.897393 1.72756 0.91535C1.71922 0.917274 1.71153 0.917915 1.70383 0.917915Z" fill="#DC402E"/>
<path fill-rule="evenodd" clip-rule="evenodd" d="M5.37375 17.6871L5.35323 17.5858L5.45521 17.5646L5.47574 17.6666L5.37375 17.6871Z" fill="#DC402E"/>
<path fill-rule="evenodd" clip-rule="evenodd" d="M1.75004 19.6647L1.71734 19.5249L1.8571 19.4928L1.88916 19.632L1.75004 19.6647Z" fill="#DC402E"/>
<path fill-rule="evenodd" clip-rule="evenodd" d="M0.800447 8.57579L0.7966 8.4655L0.906897 8.46166L0.910745 8.57194L0.800447 8.57579Z" fill="#DC402E"/>
<path fill-rule="evenodd" clip-rule="evenodd" d="M4.00655 0.154538L3.9309 0.0763075L4.00912 0L4.08542 0.0788723L4.00655 0.154538Z" fill="#DC402E"/>
<path fill-rule="evenodd" clip-rule="evenodd" d="M0.233214 12.0472L0.133806 11.9471L0.19281 11.8875L0.226159 11.8541L0.233214 11.8464C0.297988 11.8567 0.333262 11.892 0.333262 11.9471C0.333262 12.0023 0.291575 12.0414 0.233214 12.0472Z" fill="#DC402E"/>
<path fill-rule="evenodd" clip-rule="evenodd" d="M0.935642 14.6702C0.868938 14.6548 0.834945 14.6157 0.839435 14.558C0.840076 14.5452 0.843284 14.5336 0.847773 14.5227C0.865091 14.4855 0.903573 14.4624 0.951035 14.4618L1.04724 14.5734L0.986952 14.626L0.935642 14.6702Z" fill="#DC402E"/>
<path fill-rule="evenodd" clip-rule="evenodd" d="M1.59027 5.54172C1.54987 5.54172 1.51909 5.52184 1.50049 5.48465L1.54923 5.34485L1.68839 5.39359L1.64029 5.53339C1.62233 5.53916 1.60566 5.54172 1.59027 5.54172Z" fill="#DC402E"/>
<path fill-rule="evenodd" clip-rule="evenodd" d="M1.05427 8.27804C1.04658 8.27804 1.03888 8.2774 1.03119 8.27547C0.974119 8.26457 0.942057 8.21327 0.947828 8.15299L1.07095 8.07027L1.15302 8.19275C1.13379 8.24854 1.09916 8.27804 1.05427 8.27804Z" fill="#DC402E"/>
<path fill-rule="evenodd" clip-rule="evenodd" d="M0.399447 11.1512C0.390468 11.1512 0.38085 11.1499 0.37123 11.148C0.316078 11.1332 0.287859 11.0819 0.297479 11.0223L0.422535 10.9486L0.496285 11.0736C0.475122 11.1249 0.441132 11.1512 0.399447 11.1512Z" fill="#DC402E"/>
<path fill-rule="evenodd" clip-rule="evenodd" d="M1.68817 9.63734C1.65482 9.63734 1.61955 9.62579 1.58813 9.60207C1.52401 9.55525 1.5285 9.46355 1.57659 9.39942C1.60032 9.36736 1.64456 9.34876 1.68752 9.34876C1.72215 9.34876 1.75678 9.36031 1.77922 9.38724C1.8395 9.4597 1.84399 9.53153 1.7914 9.59053C1.76319 9.62195 1.72664 9.63734 1.68817 9.63734Z" fill="#DC402E"/>
<path fill-rule="evenodd" clip-rule="evenodd" d="M1.5231 10.4319C1.50129 10.4319 1.47821 10.4248 1.45833 10.412C1.41408 10.3844 1.38138 10.3325 1.391 10.2799C1.39164 10.2786 1.39164 10.2773 1.39228 10.2754C1.4128 10.1888 1.46282 10.1427 1.53464 10.1427C1.53913 10.1427 1.54362 10.1433 1.54875 10.1433C1.62826 10.1504 1.6802 10.2158 1.68085 10.2998C1.68149 10.3799 1.60454 10.4319 1.52438 10.4319C1.52374 10.4319 1.52374 10.4319 1.5231 10.4319Z" fill="#DC402E"/>
<path fill-rule="evenodd" clip-rule="evenodd" d="M2.84734 10.696C2.83067 10.696 2.81463 10.6928 2.79989 10.6851C2.71525 10.6428 2.68254 10.5787 2.70755 10.503C2.72807 10.4408 2.78257 10.4055 2.84669 10.4055C2.8608 10.4055 2.87555 10.4074 2.8903 10.4106C2.96789 10.428 2.99995 10.5152 2.98199 10.5928C2.96981 10.6486 2.90761 10.696 2.84734 10.696Z" fill="#DC402E"/>
<path fill-rule="evenodd" clip-rule="evenodd" d="M0.67283 12.9481C0.61448 12.9481 0.571519 12.9199 0.547153 12.866C0.515734 12.7942 0.547794 12.7192 0.619609 12.6788C0.637563 12.6692 0.6568 12.6647 0.674754 12.6647C0.727333 12.6647 0.778629 12.7006 0.806843 12.7519C0.841468 12.8134 0.810049 12.9173 0.734386 12.9391C0.712585 12.9449 0.692066 12.9481 0.67283 12.9481Z" fill="#DC402E"/>
<path fill-rule="evenodd" clip-rule="evenodd" d="M1.19579 13.1719L1.09638 13.0693C1.10728 13.0045 1.14256 12.9692 1.19643 12.9692C1.19771 12.9692 1.19835 12.9692 1.19964 12.9692C1.25544 12.9705 1.29456 13.0141 1.29905 13.0725L1.19579 13.1719Z" fill="#DC402E"/>
<path fill-rule="evenodd" clip-rule="evenodd" d="M1.03897 10.1569C0.968437 10.1569 0.888287 10.094 0.892134 10.0177C0.897264 9.91771 0.945995 9.85872 1.02999 9.85038C1.03512 9.84974 1.04025 9.84974 1.04602 9.84974C1.12297 9.84974 1.18132 9.90617 1.19735 9.98824C1.21274 10.0716 1.1422 10.1396 1.05949 10.1556C1.05308 10.1569 1.04602 10.1569 1.03897 10.1569Z" fill="#DC402E"/>
<path fill-rule="evenodd" clip-rule="evenodd" d="M0.49319 9.60615L0.367539 9.60038L0.373308 9.47474L0.49896 9.48115L0.49319 9.60615Z" fill="#DC402E"/>
<path fill-rule="evenodd" clip-rule="evenodd" d="M0.998229 9.35916L0.978351 9.26104L1.07646 9.24052L1.09762 9.33928L0.998229 9.35916Z" fill="#DC402E"/>
<path fill-rule="evenodd" clip-rule="evenodd" d="M1.24776 9.06799L1.17466 9.00835L1.23365 8.93524L1.30739 8.99488L1.24776 9.06799Z" fill="#DC402E"/>
<path fill-rule="evenodd" clip-rule="evenodd" d="M0.273263 8.89634L0.185421 8.8181L0.264286 8.73025L0.352128 8.80848L0.273263 8.89634Z" fill="#DC402E"/>
<path fill-rule="evenodd" clip-rule="evenodd" d="M0.557894 7.57423L0.459149 7.48124L0.552124 7.38313L0.650868 7.47612C0.643815 7.53832 0.610472 7.57294 0.557894 7.57423Z" fill="#DC402E"/>
<path fill-rule="evenodd" clip-rule="evenodd" d="M0.230805 6.77046L0.167319 6.64156L0.296855 6.57871C0.35521 6.60885 0.378296 6.65438 0.359699 6.70761L0.230805 6.77046Z" fill="#DC402E"/>
<path fill-rule="evenodd" clip-rule="evenodd" d="M0.237538 11.6096L0.200342 11.5628L0.247158 11.525L0.284354 11.5725L0.237538 11.6096Z" fill="#DC402E"/>
</g>
</svg>
