<svg width="2" height="1" viewBox="0 0 2 1" fill="none" xmlns="http://www.w3.org/2000/svg">
<path fill-rule="evenodd" clip-rule="evenodd" d="M1.29314 0.999992L1.26987 0.998624C1.1672 0.985618 1.09396 0.892532 1.10765 0.789857C1.11928 0.691974 1.09259 0.594774 1.03235 0.516741C0.971429 0.438708 0.883808 0.389417 0.78524 0.377097C0.688726 0.366145 0.590157 0.391471 0.512124 0.452392C0.434091 0.512627 0.384811 0.600244 0.37249 0.698811C0.360169 0.801486 0.271189 0.876096 0.163722 0.861037C0.0617321 0.848716 -0.011509 0.754939 0.00149649 0.652949C0.025454 0.455129 0.125383 0.279214 0.282133 0.157373C0.439568 0.0348483 0.636025 -0.0192222 0.831792 0.0061042C1.02893 0.0300616 1.20484 0.130001 1.32668 0.286751C1.4492 0.443501 1.50328 0.639263 1.47864 0.836398C1.46632 0.930859 1.38623 0.999992 1.29314 0.999992Z" fill="#131927"/>
</svg>
