<svg width="21" height="18" viewBox="0 0 21 18" fill="none" xmlns="http://www.w3.org/2000/svg">
<path fill-rule="evenodd" clip-rule="evenodd" d="M19.316 10.0893C20.3568 9.01814 20.9999 7.55892 20.9999 5.94731C20.9999 2.66276 18.3372 0 15.052 0C13.2241 0 11.5905 0.826465 10.4993 2.12363C9.40878 0.826465 7.77522 0 5.94731 0C2.66276 0 0 2.66276 0 5.94731C0 7.51114 0.607596 8.92969 1.59419 9.99118L1.66069 10.1029L9.57279 17.4345C10.0422 18.0143 10.9268 18.0143 11.3962 17.4345L19.0358 10.3547C19.1184 10.2804 19.2024 10.2068 19.2805 10.1281L19.3076 10.1029L19.316 10.0893Z" fill="#FFFFFE"/>
</svg>
