<svg width="22" height="9" viewBox="0 0 22 9" fill="none" xmlns="http://www.w3.org/2000/svg">
<mask id="mask0_1_2083" style="mask-type:alpha" maskUnits="userSpaceOnUse" x="-14" y="-37" width="62" height="61">
<path d="M47.8718 -36.3855C42.9904 -23.8496 41.1796 -11.4764 36.2981 1.0602C32.9394 9.68592 30.6792 21.3772 20.1813 23.5728C17.5562 24.1218 14.7548 24.043 12.2724 23.0271C8.15164 21.3404 5.63825 17.5109 3.00862 14.1354C0.681866 11.148 -1.67653 8.18512 -4.01879 5.21C-4.61291 4.45508 -13.5079 -6.97399 -13.5744 -6.92555L4.82586 -20.4121L16.4932 -1.51454C16.8038 -1.01083 17.5781 -1.19358 17.6305 -1.78383L20.7063 -36.6225L47.8718 -36.3855Z" fill="white"/>
</mask>
<g mask="url(#mask0_1_2083)">
<path fill-rule="evenodd" clip-rule="evenodd" d="M2.83337 5.46263L2.79333 5.31798L2.93734 5.2786L2.97738 5.42195L2.83337 5.46263Z" fill="#DC402E"/>
<path fill-rule="evenodd" clip-rule="evenodd" d="M21.9308 3.7565L21.863 3.6874L21.9321 3.61896L21.9999 3.6887L21.9308 3.7565Z" fill="#DC402E"/>
<path fill-rule="evenodd" clip-rule="evenodd" d="M8.57011 4.14237L8.53395 4.09458L8.58237 4.05906L8.61789 4.10685L8.57011 4.14237Z" fill="#DC402E"/>
<path fill-rule="evenodd" clip-rule="evenodd" d="M11.6145 8.23711C11.6003 8.23711 11.5855 8.23518 11.5713 8.23259C11.477 8.21516 11.4344 8.11312 11.4518 8.01884C11.4647 7.94974 11.5396 7.88839 11.6145 7.88839C11.632 7.88839 11.6494 7.89227 11.6662 7.89937C11.7695 7.94651 11.8115 8.02207 11.785 8.11313C11.7631 8.19191 11.6953 8.23711 11.6145 8.23711Z" fill="#DC402E"/>
<path fill-rule="evenodd" clip-rule="evenodd" d="M12.8671 0.20145C12.8058 0.20145 12.767 0.17304 12.7567 0.120741L12.8368 0L12.9575 0.0807091L12.8768 0.20145C12.8736 0.20145 12.8704 0.20145 12.8671 0.20145Z" fill="#DC402E"/>
<path fill-rule="evenodd" clip-rule="evenodd" d="M5.19194 6.21772C5.14158 6.21772 5.0925 6.1822 5.06603 6.13376C5.03439 6.07435 5.06473 5.97554 5.13705 5.95681C5.15707 5.951 5.17644 5.94841 5.19388 5.94841C5.25006 5.94841 5.29138 5.97554 5.31398 6.0272C5.34304 6.09566 5.31205 6.1667 5.24295 6.20416C5.22681 6.2132 5.20938 6.21772 5.19194 6.21772Z" fill="#DC402E"/>
<path fill-rule="evenodd" clip-rule="evenodd" d="M17.4262 3.5188L17.37 3.50653L17.383 3.44972L17.4391 3.46199L17.4262 3.5188Z" fill="#DC402E"/>
<path fill-rule="evenodd" clip-rule="evenodd" d="M7.79623 8.36648C7.71938 8.36648 7.6548 8.29996 7.63478 8.21989C7.61412 8.13788 7.68257 8.02616 7.77685 8.02487C7.77815 8.02487 7.77944 8.02487 7.78073 8.02487C7.88986 8.02487 7.95767 8.07459 7.97187 8.16629C7.98673 8.25928 7.92667 8.33677 7.83045 8.36195C7.81883 8.36518 7.8072 8.36648 7.79623 8.36648Z" fill="#DC402E"/>
<path fill-rule="evenodd" clip-rule="evenodd" d="M16.5823 8.24258C16.5158 8.18897 16.4499 8.13278 16.386 8.07466C16.3963 8.07207 16.4073 8.07143 16.4183 8.07143C16.4829 8.07143 16.5513 8.10695 16.5707 8.17089C16.5778 8.19672 16.5823 8.22062 16.5823 8.24258Z" fill="#DC402E"/>
<path fill-rule="evenodd" clip-rule="evenodd" d="M0.217195 5.61326L0.12613 5.61068L0.128714 5.52026L0.219133 5.52284L0.217195 5.61326Z" fill="#DC402E"/>
<path fill-rule="evenodd" clip-rule="evenodd" d="M0.171341 7.22855C0.131946 7.22855 0.0906126 7.21435 0.0563843 7.18916C-0.00690572 7.14202 -0.0243427 7.0219 0.0428222 6.96572C0.0854461 6.9302 0.12807 6.91212 0.168111 6.91212C0.202985 6.91212 0.235922 6.92568 0.266275 6.9528C0.331503 7.01028 0.334086 7.10133 0.279837 7.1756C0.253359 7.21241 0.213319 7.22855 0.171341 7.22855Z" fill="#DC402E"/>
<path fill-rule="evenodd" clip-rule="evenodd" d="M1.81702 4.63974L1.68267 4.62683L1.69624 4.4925L1.83058 4.50542L1.81702 4.63974Z" fill="#DC402E"/>
</g>
</svg>
