<svg width="41" height="54" viewBox="0 0 41 54" fill="none" xmlns="http://www.w3.org/2000/svg">
<path fill-rule="evenodd" clip-rule="evenodd" d="M0.856586 53.9691C0.7448 53.9691 0.653156 53.8794 0.651206 53.7676L4.42808e-08 20.4171C-0.000649873 11.6212 7.15299 4.46818 15.9457 4.46818H36.3264C38.6765 4.46818 40.5893 2.55613 40.5893 0.20538C40.5893 0.0922944 40.6809 0 40.7946 0C40.9084 0 41 0.0922944 41 0.20538C41 2.7823 38.9034 4.87959 36.3264 4.87959H15.9457C7.37981 4.87959 0.41074 11.848 0.41074 20.4132L1.06131 53.7598C1.06391 53.8729 0.973579 53.9665 0.860493 53.9684L0.856586 53.9691Z" fill="#B8DFE3"/>
</svg>
