<svg width="8" height="14" viewBox="0 0 8 14" fill="none" xmlns="http://www.w3.org/2000/svg">
<mask id="mask0_1_1771" style="mask-type:alpha" maskUnits="userSpaceOnUse" x="-33" y="-23" width="43" height="43">
<path d="M9.16926 -1.07124C9.16926 10.5427 -0.24568 19.9576 -11.8596 19.9576C-23.4729 19.9576 -32.8879 10.5427 -32.8879 -1.07124C-32.8879 -12.6852 -23.4729 -22.1001 -11.8596 -22.1001C-0.24568 -22.1001 9.16926 -12.6852 9.16926 -1.07124Z" fill="white"/>
</mask>
<g mask="url(#mask0_1_1771)">
<path fill-rule="evenodd" clip-rule="evenodd" d="M6.47025 7.02662C6.46038 7.02662 6.44985 7.02596 6.43932 7.02399C6.35309 7.0095 6.30373 6.93379 6.31097 6.84226C6.31689 6.76062 6.39522 6.71255 6.47684 6.71255C6.4821 6.71255 6.48737 6.71255 6.49263 6.71321C6.57096 6.71914 6.64797 6.81263 6.62098 6.89494C6.59334 6.98119 6.54068 7.02662 6.47025 7.02662Z" fill="#D42A39"/>
<path fill-rule="evenodd" clip-rule="evenodd" d="M1.11845 1.86263L0.966318 1.85341L0.975538 1.70132L1.12767 1.71054L1.11845 1.86263Z" fill="#D42A39"/>
<path fill-rule="evenodd" clip-rule="evenodd" d="M1.6644 14C1.65848 14 1.65321 14 1.64794 13.9993C1.65189 13.9486 1.63675 13.8979 1.59922 13.8545C1.55774 13.8097 1.50968 13.7873 1.45569 13.7873C1.41026 13.7873 1.36088 13.8038 1.30887 13.8367C1.27661 13.8584 1.25489 13.8887 1.24303 13.9236C1.23513 13.9203 1.22658 13.9164 1.21867 13.9117L1.17061 13.9473L1.13703 13.8308L1.19036 13.7774L1.29702 13.8011L1.3385 13.7004L1.40368 13.6708L1.50441 13.7241L1.51034 13.7656C1.53075 13.815 1.58803 13.8413 1.64267 13.8413C1.66769 13.8413 1.69139 13.836 1.7118 13.8248C1.68481 13.8736 1.68152 13.9295 1.70456 13.9796L1.6644 14ZM0.655752 13.9624L0.647195 13.8709L0.72225 13.8426L0.751879 13.8248L0.793357 13.7985L0.795331 13.8215C0.757803 13.8564 0.732783 13.8992 0.733442 13.9552L0.655752 13.9624ZM2.39323 13.9229C2.38863 13.9229 2.38402 13.9223 2.37941 13.9216C2.35176 13.8696 2.30304 13.8406 2.24444 13.8406C2.23456 13.8406 2.22535 13.8413 2.21547 13.8426L2.12066 13.89L2.06141 13.8663L2.01401 13.7715C1.97319 13.734 1.92051 13.7136 1.86916 13.7136C1.83887 13.7136 1.80925 13.7208 1.78291 13.736L1.77106 13.6174L1.75921 13.5997L1.77106 13.4989H1.77699C1.7895 13.4891 1.80003 13.4779 1.80793 13.4654L1.87443 13.4509C1.86521 13.418 1.86258 13.3831 1.86784 13.3501L2.01401 13.339L2.00808 13.1869L2.0094 13.1862L2.02125 13.042C2.02981 13.0828 2.05022 13.125 2.08511 13.1671C2.12066 13.2204 2.18584 13.2382 2.25102 13.2382L2.27473 13.256L2.2925 13.2975L2.35768 13.3567L2.28065 13.4693L2.33991 13.6234L2.31621 13.6708L2.33991 13.7656C2.33991 13.8242 2.359 13.8782 2.39323 13.9229ZM2.06733 13.6234V13.736L2.13251 13.8071L2.17992 13.7952L2.08511 13.6945V13.6352L2.06733 13.6234ZM3.04109 13.7669L3.02134 13.6945C3.01936 13.6912 3.01739 13.6886 3.01541 13.6853L3.03319 13.653H3.03516C3.04701 13.6754 3.06545 13.6971 3.09047 13.7175C3.07467 13.7333 3.05755 13.7504 3.04109 13.7669ZM2.77839 13.7063C2.76062 13.6352 2.70136 13.5819 2.61248 13.5463L2.5947 13.5404L2.60063 13.5226C2.61248 13.4456 2.57693 13.3923 2.50582 13.3567L2.52952 13.339C2.54861 13.3436 2.56771 13.3455 2.5868 13.3455C2.64606 13.3455 2.70399 13.3245 2.74876 13.2797L2.78432 13.2323L2.83765 13.2145C2.95023 13.1553 3.01541 13.0249 2.95616 12.9123C2.9397 12.8833 2.91863 12.859 2.89558 12.8392L2.89493 12.7892C2.91073 12.7273 2.94826 12.6819 2.99895 12.6549L3.00422 12.6147L3.08717 12.5252L3.04635 12.4251L3.0029 12.3915L2.99039 12.4113L2.96866 12.4719L2.96077 12.512L2.94496 12.6049L2.83567 12.6253L2.79024 12.622C2.80341 12.6193 2.81724 12.6154 2.83172 12.6101C2.90283 12.5805 2.9206 12.4857 2.88505 12.4324C2.85674 12.3876 2.80868 12.3599 2.76259 12.3599C2.74152 12.3599 2.7198 12.3659 2.70136 12.379C2.67634 12.3994 2.65725 12.4238 2.64671 12.4495C2.64869 12.4337 2.65264 12.4172 2.65791 12.4021L2.70597 12.3402L2.70992 12.2849L2.71848 12.2618L2.68556 12.246L2.60326 12.3902C2.57692 12.3988 2.55191 12.4034 2.52952 12.4034C2.5236 12.4034 2.51767 12.4034 2.5124 12.4027C2.5124 12.3988 2.51174 12.3948 2.51174 12.3909C2.50384 12.3264 2.44986 12.2763 2.38863 12.2566C2.38994 12.2059 2.41957 12.1585 2.46961 12.1269L2.54927 12.1097L2.54137 12.0479L2.54664 12.0156C2.49331 11.8833 2.51965 11.7753 2.62433 11.7108C2.62894 11.7075 2.6342 11.7048 2.63881 11.7022L2.62433 11.7509L2.70729 11.8043L2.76062 11.7213L2.70136 11.6798C2.71453 11.6778 2.7277 11.6765 2.74087 11.6765C2.77247 11.6765 2.80341 11.6831 2.83304 11.6963L2.86925 11.5995L2.85806 11.5304L2.83304 11.5317C2.8067 11.5738 2.76654 11.6074 2.72111 11.6219C2.75469 11.5593 2.74876 11.4757 2.70729 11.425C2.66449 11.3704 2.60063 11.3335 2.53874 11.3335C2.50648 11.3335 2.47488 11.3434 2.44656 11.3658C2.43603 11.3743 2.42616 11.3829 2.4176 11.3928L2.42681 11.3223L2.42418 11.3203L2.40443 11.319L2.35703 11.2598L2.3241 11.1992L2.32147 11.244C2.31028 11.2953 2.2609 11.3223 2.20889 11.3223C2.19835 11.3223 2.18782 11.3217 2.17663 11.319L2.16807 11.3085C2.16807 11.2953 2.16609 11.2808 2.16214 11.265L2.10815 11.2394L2.09433 11.2236H2.09104L2.07326 11.2209V11.2229L2.03771 11.2058L1.97253 11.3361L1.97384 11.3368L1.98108 11.4211C1.9745 11.4816 1.94487 11.5304 1.90142 11.5633L1.86587 11.6792C1.82834 11.7187 1.7895 11.743 1.75065 11.7529C1.74341 11.7101 1.72036 11.6673 1.68218 11.6265C1.65255 11.5916 1.60976 11.5765 1.56696 11.5765C1.5584 11.5765 1.5505 11.5771 1.54194 11.5784L1.5426 11.5639L1.53733 11.5626L1.44911 11.5165L1.42607 11.5396C1.39446 11.5574 1.36484 11.5659 1.33784 11.5659C1.32863 11.5659 1.32007 11.5653 1.31216 11.5633L1.30887 11.5376L1.26608 11.5409C1.25752 11.5343 1.24962 11.5258 1.24238 11.5165L1.2167 11.4362L1.17785 11.296L1.2088 11.2374L1.20551 11.2058L1.09687 11.1051L1.08963 11.134L0.923058 11.186C0.858536 11.1386 0.839444 11.08 0.871047 11.0195L0.921742 10.9714C0.896724 10.9865 0.869071 10.9938 0.839444 10.9938C0.806525 10.9938 0.772288 10.9846 0.739369 10.9655C0.661021 10.9194 0.655094 10.814 0.701181 10.735C0.726858 10.6909 0.78414 10.6626 0.839444 10.6626C0.873022 10.6626 0.905941 10.6732 0.93096 10.6969C1.00865 10.7713 1.02182 10.8529 0.969803 10.9266L0.923058 10.9707L1.03762 10.9674L1.07251 10.9931C1.08239 10.9207 1.13769 10.8549 1.21143 10.8219C1.2325 10.8121 1.2562 10.8075 1.28122 10.8075C1.36484 10.8075 1.45701 10.8608 1.47413 10.9477L1.48071 11.0379L1.58605 10.9391L1.54458 10.8404H1.53865C1.46096 10.8252 1.41948 10.7805 1.42277 10.7133L1.51231 10.606L1.52877 10.583C1.57091 10.5402 1.61437 10.5184 1.65716 10.5184C1.68613 10.5184 1.7151 10.5283 1.74275 10.5487C1.802 10.5909 1.81649 10.6613 1.79147 10.7291L1.82834 10.7831L1.85204 10.7456L2.0173 10.7377L2.0252 10.9029L1.85994 10.9108L1.83361 10.8687L1.80464 10.924C1.86653 10.9464 1.9192 10.9912 1.95673 11.0524C1.97911 10.9707 2.02849 10.926 2.09959 10.926C2.1042 10.926 2.10881 10.926 2.11342 10.9266C2.19111 10.9326 2.24181 10.9938 2.24839 11.0734L2.24905 11.1004L2.31489 11.1656L2.31884 11.0675C2.27868 10.9997 2.29843 10.9194 2.36492 10.8661L2.4729 10.843H2.48673L2.54203 10.8773L2.56244 10.8957L2.56968 10.8977L2.68293 10.8101C2.71321 10.795 2.74811 10.7884 2.78432 10.7884C2.88703 10.7884 2.99829 10.8463 3.03648 10.9437C3.10298 10.9628 3.14116 11.0359 3.13919 11.1097C3.13721 11.1722 3.07862 11.2367 3.01146 11.2453L2.97064 11.2881L2.96735 11.3223L2.98513 11.3138L3.06347 11.2387L3.21161 11.267C3.24321 11.2078 3.31564 11.1729 3.39003 11.1729C3.39333 11.1729 3.39662 11.1729 3.39991 11.1729L3.47431 11.2038C3.49669 11.2341 3.53159 11.2558 3.56648 11.2591C3.63759 11.2591 3.70869 11.2176 3.71462 11.1465C3.71462 11.1393 3.71396 11.1327 3.7133 11.1261C3.72647 11.1281 3.73898 11.1314 3.75083 11.136L3.82062 11.0682L3.74885 10.9767L3.73832 11.0004C3.72318 11.0214 3.70342 11.0359 3.68236 11.0445C3.66326 11.0208 3.63627 11.0043 3.60203 10.9984C3.59677 10.9977 3.59216 10.9977 3.58689 10.9977C3.56582 10.9977 3.54607 11.0017 3.52829 11.0102C3.4934 10.9714 3.4934 10.9108 3.51842 10.8595L3.48155 10.8535L3.45258 10.8391C3.43414 10.847 3.41308 10.8509 3.39267 10.8509C3.34526 10.8509 3.29654 10.8298 3.27416 10.7871C3.2307 10.7015 3.24255 10.6284 3.30905 10.581L3.40386 10.556L3.5171 10.4394L3.46509 10.3828L3.41703 10.4072C3.41703 10.4789 3.37621 10.556 3.30379 10.5751C3.27679 10.5823 3.25111 10.5862 3.22741 10.5862C3.15631 10.5862 3.10298 10.5533 3.07137 10.4921L3.05162 10.5125C3.02002 10.5375 2.97723 10.5494 2.93377 10.5494C2.86267 10.5494 2.78893 10.5158 2.75798 10.45L2.7402 10.4019L2.61972 10.3058C2.56178 10.2044 2.59734 10.0878 2.69807 10.0174C2.72835 9.99567 2.76193 9.98646 2.79485 9.98646C2.85542 9.98646 2.916 10.0174 2.96142 10.0655L2.97854 10.0688L2.99566 10.0628L2.96669 10.0279L2.96077 9.95815L2.95155 9.95354C2.89493 9.91338 2.89098 9.83766 2.92192 9.77643L2.95155 9.71915C2.98381 9.69348 3.01541 9.68031 3.04504 9.68031C3.07203 9.68031 3.09771 9.69084 3.12075 9.71191L3.12339 9.71586C3.15433 9.68228 3.20239 9.66056 3.24848 9.66056C3.27482 9.66056 3.29983 9.66714 3.32222 9.68294C3.36172 9.71125 3.38872 9.7422 3.4032 9.77577L3.37687 9.8133L3.41505 9.84161C3.41439 9.86005 3.40978 9.87848 3.40188 9.89757H3.52434C3.6152 9.92259 3.68433 10.0483 3.63429 10.1392L3.59216 10.1925H3.59018L3.58952 10.1958L3.57372 10.2169L3.58557 10.2149C3.58623 10.2149 3.58623 10.2149 3.58689 10.2149L3.57833 10.2755L3.66129 10.2873L3.66524 10.2584C3.68631 10.284 3.6975 10.3176 3.68762 10.3492L3.63166 10.4348L3.69289 10.4625L3.70211 10.4137C3.71725 10.3683 3.76136 10.3466 3.80745 10.3466C3.82391 10.3466 3.84103 10.3492 3.85749 10.3552L3.87922 10.367C3.91016 10.288 3.99443 10.2208 4.08134 10.2208C4.09517 10.2208 4.10899 10.2228 4.12282 10.2261L4.13796 10.1511L4.2861 10.1214L4.31572 10.2696L4.26503 10.3058L4.31968 10.4091L4.32428 10.4164C4.35589 10.3986 4.3888 10.39 4.42304 10.39C4.45662 10.39 4.49151 10.3986 4.52641 10.4157L4.53497 10.4223L4.60081 10.3663C4.6436 10.3486 4.6831 10.3393 4.71932 10.3393C4.78713 10.3393 4.84244 10.371 4.88128 10.4335L4.90761 10.5691L4.97806 10.581L4.95436 10.5026C4.94712 10.4348 5.00111 10.3578 5.06958 10.3367L5.08143 10.2123L5.05444 10.155V10.1208L4.9774 10.1241C4.9142 10.1155 4.86416 10.0819 4.83256 10.0325H4.87601C4.92934 9.97329 4.93527 9.89033 4.88194 9.837C4.86943 9.82318 4.8556 9.81199 4.84112 9.80474L4.87074 9.75141L4.95699 9.68755H4.9886C5.01954 9.6092 5.09526 9.55785 5.1927 9.55324C5.19533 9.55324 5.19796 9.55324 5.2006 9.55324C5.275 9.55324 5.33293 9.6013 5.36519 9.66648L5.46461 9.65924C5.55942 9.66977 5.61735 9.75273 5.62855 9.84622C5.65291 9.8403 5.67859 9.837 5.70426 9.837C5.78327 9.837 5.86227 9.86795 5.90705 9.9351C5.93996 9.9858 5.96169 10.0352 5.97091 10.0819C5.90507 10.1866 5.83791 10.2919 5.7701 10.396C5.74903 10.4012 5.72665 10.4045 5.70492 10.4045C5.64237 10.4045 5.57917 10.3828 5.52189 10.3413L5.42116 10.4908L5.2875 10.5276C5.27434 10.6053 5.21245 10.6613 5.12554 10.6699H5.09723C5.15319 10.7528 5.12422 10.868 5.04851 10.9431L5.00835 10.9674L4.99518 11.0734L5.04983 11.1083L5.03073 11.2775L4.92012 11.2986L4.91551 11.3895L5.01559 11.4784C4.81544 11.747 4.60805 12.0116 4.39539 12.2704C4.38288 12.2408 4.36049 12.2171 4.32494 12.2072L4.28346 12.2013H4.28939C4.37235 12.1361 4.41382 12.0235 4.35457 11.9405C4.31111 11.8819 4.24989 11.849 4.18734 11.849C4.15574 11.849 4.12413 11.8576 4.09385 11.8754C4.01682 11.9168 3.99312 11.9879 4.00497 12.0709L3.93386 12.0768C3.84498 12.0946 3.79757 12.219 3.83313 12.2961C3.86539 12.3606 3.92596 12.4106 3.99311 12.4106C4.01221 12.4106 4.03262 12.406 4.05237 12.3968L4.08792 12.3731L4.06422 12.462L4.08595 12.6391C3.83379 12.9314 3.5757 13.2158 3.30839 13.4937C3.29193 13.4713 3.26955 13.4535 3.24058 13.4456C3.21951 13.4377 3.19778 13.4344 3.17672 13.4344C3.11549 13.4344 3.05952 13.4654 3.03319 13.5226C3.02068 13.5516 3.01673 13.5793 3.01936 13.6049L2.99171 13.5819L2.95023 13.6174L2.8258 13.6352C2.83172 13.6392 2.83765 13.6431 2.84291 13.6471C2.83238 13.6517 2.82185 13.6576 2.81395 13.6649L2.77839 13.7063ZM2.69544 13.4041L2.65396 13.4515L2.64211 13.4752L2.71914 13.4693L2.73691 13.416L2.70136 13.4101L2.69544 13.4041ZM2.96801 13.3686L2.99764 13.4041L3.12799 13.3804L3.16947 13.339L3.18132 13.3271L3.2228 13.3093L3.2465 13.3034L3.27021 13.2975L3.28206 13.2619L3.25836 13.2086L3.25243 13.179L3.24058 13.1967L3.18725 13.2264L3.18132 13.2382C3.13524 13.3251 3.07598 13.3725 3.00356 13.3725C2.99237 13.3725 2.98052 13.3712 2.96801 13.3686ZM3.28206 12.8827L3.24058 12.936L3.29983 12.9775L3.33539 12.9242L3.28206 12.8827ZM2.98578 12.7583L2.9206 12.7879L2.95023 12.8531L3.01541 12.8234L2.98578 12.7583ZM3.61981 12.7346L3.5487 12.7464L3.55463 12.8175L3.62574 12.8057L3.61981 12.7346ZM3.26231 12.2895C3.22675 12.2895 3.19252 12.3027 3.16355 12.3316C3.10429 12.385 3.10429 12.462 3.16355 12.539C3.18659 12.5706 3.22544 12.5858 3.26428 12.5858C3.3051 12.5858 3.34658 12.5693 3.37094 12.539C3.42427 12.4798 3.43612 12.385 3.37094 12.3316C3.33736 12.304 3.29918 12.2895 3.26231 12.2895ZM3.53093 12.3494L3.44797 12.4738L3.57241 12.5568C3.62573 12.5509 3.65536 12.5035 3.65536 12.4383L3.53093 12.3494ZM3.525 11.4606C3.48945 11.5139 3.43612 11.5376 3.37094 11.5376L3.40649 11.585H3.49538L3.57833 11.6739C3.63759 11.7272 3.66129 11.8043 3.64944 11.8931L3.73239 11.9287L3.7561 11.8161L3.71462 11.7509L3.72647 11.7094C3.60796 11.6857 3.54278 11.6146 3.53093 11.5021L3.53685 11.4724L3.525 11.4606ZM3.8746 11.6857L3.83313 11.7094L3.8509 11.745L3.84498 11.7628H3.8746V11.6857ZM4.3605 11.5613L4.23606 11.6383L4.20643 11.6443L4.20051 11.668L4.33679 11.6798L4.3605 11.5791V11.5613ZM1.39183 11.1465L1.32072 11.1939L1.36813 11.265L1.43923 11.2176L1.41816 11.1854L1.44516 11.1584L1.45108 11.1347L1.41092 11.1748L1.39183 11.1465ZM4.75158 11.1762L4.72195 11.2354L4.72787 11.2473V11.2532L4.7338 11.2473L4.85231 11.2354L4.84046 11.1939L4.75158 11.1762ZM4.07344 10.9089C4.02208 10.9089 3.98587 10.9385 3.96941 10.9984L4.0583 11.1169L4.17681 11.028C4.17681 10.9688 4.14718 10.9214 4.08792 10.9095C4.08266 10.9089 4.07805 10.9089 4.07344 10.9089ZM4.50863 10.8384L4.48493 10.9036L4.44938 10.9451L4.42568 11.0399L4.4316 11.0458L4.46715 11.0636L4.50271 11.0221L4.51456 11.0102V11.0043L4.53233 10.8384H4.50863ZM4.7101 10.8206L4.70417 10.7673L4.63899 10.7732L4.61529 10.8029L4.7101 10.8206ZM5.23747 9.97329L5.20191 9.97921L5.17821 10.0266L5.27302 10.074L5.41523 10.1036L5.42116 10.0799L5.37968 10.074C5.3145 10.0503 5.26709 10.0148 5.23747 9.97329ZM3.16947 9.98514L3.14577 10.0503L3.19317 10.074L3.28206 10.0088L3.28798 9.99106L3.16947 9.98514ZM0.0572808 13.6286L0 13.5674L0.0184347 13.5325L0.0348954 13.5345L0.0572808 13.6286ZM1.34838 13.4397C1.33653 13.3548 1.27464 13.2948 1.17851 13.2738L1.18444 13.2441L1.22592 13.179C1.29702 13.1493 1.3622 13.0723 1.3622 12.9953L1.35628 12.9301L1.37405 12.9419C1.39644 12.9597 1.42014 12.9729 1.44384 12.9801L1.3892 13.0842L1.40763 13.1335C1.46162 13.2132 1.45569 13.3185 1.39183 13.4087L1.34838 13.4397ZM0.164597 13.3396L0.15933 13.2738L0.147478 13.2619L0.183031 13.2145L0.242286 13.2086C0.251504 13.206 0.260064 13.2033 0.267964 13.1994L0.318002 13.2112C0.335778 13.2218 0.350921 13.2336 0.364089 13.2461C0.354871 13.254 0.345654 13.2632 0.337095 13.2738L0.313393 13.3152L0.296933 13.333H0.183031L0.164597 13.3396ZM1.50968 13.3264C1.51758 13.3218 1.52614 13.3172 1.53536 13.3133C1.5505 13.306 1.5663 13.3034 1.5821 13.3034C1.59264 13.3034 1.60251 13.3047 1.61305 13.3073L1.60515 13.3152L1.50968 13.3264ZM0.767021 13.2507C0.767021 13.2435 0.767678 13.2362 0.768995 13.229L0.846685 13.2145L0.830885 13.1302C0.844052 13.123 0.859196 13.1171 0.875655 13.1138L0.901331 13.123C0.908573 13.1283 0.915816 13.1329 0.923716 13.1375L0.90594 13.1553L0.876313 13.2204L0.811131 13.2501C0.805206 13.2494 0.799283 13.2494 0.793357 13.2494C0.78414 13.2494 0.77558 13.2501 0.767021 13.2507ZM2.01927 12.9637C1.98767 12.9538 1.95936 12.9321 1.94882 12.9011L2.01993 12.9597C2.01993 12.961 2.01927 12.9624 2.01927 12.9637ZM2.45842 12.9301L2.39916 12.8471L2.32805 12.7997L2.29843 12.6338L2.28658 12.616H2.36953C2.42615 12.6029 2.46632 12.5726 2.48936 12.5258L2.5552 12.5779L2.62236 12.5752C2.64211 12.5772 2.66186 12.5831 2.68095 12.5923C2.6928 12.6035 2.70597 12.6114 2.72045 12.6167C2.77378 12.6582 2.81263 12.7247 2.81197 12.7925C2.78958 12.7852 2.76654 12.7813 2.74284 12.7813C2.71321 12.7813 2.68359 12.7872 2.65396 12.7997L2.64803 12.8057L2.62433 12.7583L2.51174 12.7523L2.50582 12.8708L2.5473 12.8945L2.45842 12.9301ZM1.83492 12.8768C1.76711 12.8656 1.73617 12.7931 1.74736 12.726C1.75592 12.6766 1.80991 12.6312 1.86324 12.6312C1.87509 12.6312 1.88694 12.6338 1.89813 12.6384L1.90406 12.6424C1.88167 12.6852 1.87509 12.7378 1.88364 12.7879L1.88957 12.8353L1.8955 12.8412L1.908 12.8596L1.83492 12.8768ZM0.811131 12.8234L0.778212 12.8155C0.779529 12.8109 0.781504 12.8063 0.782821 12.8011L0.803232 12.7589L0.823641 12.6944L0.869728 12.6371C0.864461 12.6694 0.870387 12.703 0.888163 12.7286L0.90594 12.7523L0.811131 12.8234ZM0.869728 12.6358L0.864461 12.6332L0.852612 12.4811L0.947418 12.4732V12.4738L0.941493 12.5331C0.901332 12.5528 0.87697 12.5937 0.869728 12.6358ZM2.02586 12.5449L1.98767 12.5127C1.99623 12.5028 2.00479 12.4942 2.01466 12.485C2.04561 12.458 2.08248 12.4462 2.12001 12.4462C2.12593 12.4462 2.13251 12.4468 2.13844 12.4475C2.13976 12.4561 2.14173 12.4653 2.14437 12.4738L2.17399 12.539L2.02586 12.5449ZM1.71905 12.4646C1.72036 12.4139 1.69995 12.3645 1.65255 12.3375C1.61831 12.3145 1.5821 12.304 1.54787 12.304C1.511 12.304 1.47544 12.3158 1.44516 12.3375V12.3316L1.3701 12.2855C1.36879 12.2408 1.3813 12.196 1.41158 12.1624L1.48334 12.1012L1.40763 12.0893C1.34179 12.0551 1.30558 12.0097 1.2957 11.9577L1.29176 11.9702L1.21077 12.0024L1.17851 11.9214L1.2595 11.8892L1.27134 11.8964L1.24633 11.8563C1.22328 11.7931 1.21933 11.7371 1.23447 11.691L1.32665 11.6798L1.31546 11.5929C1.31809 11.5909 1.32072 11.5896 1.32402 11.5883C1.35364 11.5718 1.38525 11.5639 1.41553 11.5639C1.44648 11.5639 1.47742 11.5718 1.50507 11.587C1.4682 11.5988 1.43594 11.6212 1.41553 11.6502C1.35035 11.7391 1.35035 11.8635 1.43923 11.9228C1.48071 11.9484 1.52417 11.9623 1.5663 11.9623C1.58605 11.9623 1.60449 11.959 1.62292 11.9537L1.62687 11.9814L1.56498 12.0683L1.71312 12.1032L1.76777 12.1565L1.78686 12.1387L1.84875 12.1499L1.77699 12.2013L1.83624 12.2901L1.92512 12.2309V12.2013L1.93697 12.2072C1.95146 12.2105 1.96528 12.2118 1.97845 12.2118C1.98965 12.2118 2.00084 12.2105 2.01137 12.2085C2.02981 12.2355 2.03573 12.2724 2.02915 12.3073L1.89023 12.383L1.84809 12.3566L1.79674 12.3441L1.77304 12.4047C1.75921 12.4304 1.74077 12.4501 1.71905 12.4646Z" fill="#D42A39"/>
<path fill-rule="evenodd" clip-rule="evenodd" d="M5.18605 11.2468L5.14919 11.1447C5.0827 11.0585 5.07875 10.9709 5.13997 10.8945C5.17881 10.8465 5.23081 10.8234 5.28611 10.8234C5.32166 10.8234 5.35852 10.8333 5.39407 10.8524L5.47043 10.7984L5.4994 10.8017C5.3967 10.9518 5.29203 11.0993 5.18605 11.2468Z" fill="#D42A39"/>
<path fill-rule="evenodd" clip-rule="evenodd" d="M6.67809 0.142201L6.56619 0.111919L6.59647 0L6.70902 0.0309425L6.67809 0.142201Z" fill="#D42A39"/>
<path fill-rule="evenodd" clip-rule="evenodd" d="M7.28191 6.38117L7.25097 6.22709L7.40503 6.19549L7.43663 6.34956L7.28191 6.38117Z" fill="#D42A39"/>
<path fill-rule="evenodd" clip-rule="evenodd" d="M6.51706 9.09637C6.46966 9.09637 6.42555 9.0595 6.40514 9.01144C6.38276 8.95746 6.41831 8.87385 6.48216 8.86332C6.49467 8.86134 6.50586 8.86068 6.5164 8.86068C6.57433 8.86068 6.61383 8.88767 6.63029 8.94034C6.63095 8.94297 6.63226 8.94627 6.63292 8.9489C6.6079 8.99499 6.58223 9.04107 6.55721 9.08716C6.5559 9.08782 6.55458 9.08847 6.55326 9.08847C6.54141 9.09374 6.52891 9.09637 6.51706 9.09637Z" fill="#D42A39"/>
<path fill-rule="evenodd" clip-rule="evenodd" d="M5.88979 9.61692C5.8358 9.61692 5.7805 9.59256 5.73506 9.54714C5.65869 9.47077 5.68371 9.34831 5.76009 9.2726C5.79169 9.241 5.83975 9.22454 5.88848 9.22454C5.94642 9.22454 6.00435 9.24758 6.0353 9.29762C6.10114 9.40625 6.09258 9.50369 6.00962 9.57215C5.97341 9.60244 5.93193 9.61692 5.88979 9.61692Z" fill="#D42A39"/>
<path fill-rule="evenodd" clip-rule="evenodd" d="M6.81885 8.24745L6.69112 8.16384C6.67532 8.11248 6.71482 8.0394 6.77474 8.03611C6.77869 8.03545 6.7833 8.03545 6.78725 8.03545C6.85046 8.03545 6.89128 8.06508 6.90247 8.11972C6.91498 8.17832 6.87877 8.22902 6.81885 8.24745Z" fill="#D42A39"/>
<path fill-rule="evenodd" clip-rule="evenodd" d="M6.33328 8.69581L6.28126 8.60562L6.37148 8.55295L6.42416 8.64381L6.33328 8.69581Z" fill="#D42A39"/>
<path fill-rule="evenodd" clip-rule="evenodd" d="M5.92385 8.8968L5.91068 8.71508C5.94558 8.68545 5.98049 8.67031 6.01342 8.67031C6.04108 8.67031 6.06809 8.68084 6.09245 8.70191C6.14646 8.74866 6.14909 8.82306 6.10497 8.88363L5.92385 8.8968Z" fill="#D42A39"/>
<path fill-rule="evenodd" clip-rule="evenodd" d="M5.64491 8.52751C5.63306 8.52751 5.62121 8.52685 5.60936 8.52488C5.51588 8.51171 5.42832 8.3932 5.46782 8.2951C5.50601 8.19766 5.56921 8.14696 5.64886 8.14696C5.66466 8.14696 5.68112 8.14894 5.69758 8.15289C5.80028 8.17725 5.85492 8.27271 5.83978 8.38266C5.82661 8.47616 5.73774 8.52751 5.64491 8.52751Z" fill="#D42A39"/>
<path fill-rule="evenodd" clip-rule="evenodd" d="M6.90365 5.97221L6.85954 5.86818L6.96356 5.8234L7.00768 5.9281L6.90365 5.97221Z" fill="#D42A39"/>
</g>
</svg>
