<svg width="4" height="4" viewBox="0 0 4 4" fill="none" xmlns="http://www.w3.org/2000/svg">
<path fill-rule="evenodd" clip-rule="evenodd" d="M1.99667 0.473237C1.69071 0.473237 1.38251 0.564729 1.1148 0.755201C0.428647 1.24263 0.267413 2.19799 0.754842 2.88414C0.991807 3.21559 1.34276 3.43606 1.7447 3.5043C2.14815 3.57254 2.55083 3.47955 2.88379 3.24258C3.21599 3.00712 3.4357 2.65542 3.50394 2.25348C3.57218 1.85153 3.47995 1.44734 3.24373 1.11513C2.94602 0.696695 2.4751 0.473237 1.99667 0.473237ZM2.00342 3.99998C1.89093 3.99998 1.77845 3.99099 1.66597 3.97149C1.13879 3.883 0.678359 3.59353 0.369404 3.15784C-0.269504 2.25947 -0.0587913 1.0079 0.840328 0.368241C1.7387 -0.269168 2.99027 -0.0584445 3.62918 0.840676C3.93889 1.27561 4.06036 1.8058 3.97113 2.33298C3.88264 2.8594 3.59318 3.31982 3.15824 3.62952C2.81554 3.87249 2.41511 3.99998 2.00342 3.99998Z" fill="#FFFFFE"/>
</svg>
