<svg width="6" height="5" viewBox="0 0 6 5" fill="none" xmlns="http://www.w3.org/2000/svg">
<mask id="mask0_1_2045" style="mask-type:alpha" maskUnits="userSpaceOnUse" x="-28" y="-31" width="34" height="40">
<path d="M-26.3987 6.10672C-27.0409 6.25507 -27.6375 5.73065 -27.5536 5.04031L-22.9639 -20.0306C-22.1675 -22.9514 -20.2188 -31.5146 -9.6841 -30.9043C-3.45346 -29.7572 0.56106 -27.3231 4.06742 -21.164L5.79751 3.40457C5.86908 3.87499 5.66542 4.34216 5.27113 4.60828C3.64255 5.70398 -0.928284 8.384 -6.45622 8.21744C-13.0434 8.01769 -18.2311 4.2309 -26.3987 6.10672Z" fill="white"/>
</mask>
<g mask="url(#mask0_1_2045)">
<path fill-rule="evenodd" clip-rule="evenodd" d="M4.1612 3.60693L4.05515 3.54187L4.12021 3.43582L4.22626 3.50088L4.1612 3.60693Z" fill="#EEB745"/>
<path fill-rule="evenodd" clip-rule="evenodd" d="M5.27887 3.89042C5.27431 3.89042 5.27041 3.88977 5.26585 3.88912C5.19362 3.87741 5.15392 3.83706 5.15522 3.7746C5.15587 3.71343 5.20338 3.66919 5.2691 3.66463C5.27171 3.66398 5.27431 3.66398 5.27691 3.66398C5.33483 3.66398 5.37583 3.71929 5.38039 3.77785C5.38364 3.82991 5.33548 3.89042 5.27887 3.89042Z" fill="#EEB745"/>
<path fill-rule="evenodd" clip-rule="evenodd" d="M4.57756 3.5757L4.42857 3.51584L4.48843 3.36684C4.50144 3.35968 4.51705 3.35578 4.53332 3.35578C4.57756 3.35578 4.62505 3.3818 4.63676 3.42605C4.65628 3.49827 4.63546 3.55097 4.57756 3.5757Z" fill="#EEB745"/>
<path fill-rule="evenodd" clip-rule="evenodd" d="M4.66423 5C4.65447 4.98894 4.64732 4.97593 4.64146 4.96031C4.61869 4.89655 4.65122 4.83408 4.71562 4.80415C4.72863 4.7983 4.74294 4.79505 4.75661 4.79505C4.80214 4.79505 4.84508 4.82758 4.8685 4.87182C4.80279 4.91346 4.73514 4.95641 4.66423 5Z" fill="#EEB745"/>
<path fill-rule="evenodd" clip-rule="evenodd" d="M3.40271 2.84403C3.36561 2.84403 3.33698 2.82646 3.31811 2.79262L3.35976 2.65596L3.49706 2.69696L3.45542 2.83361C3.43655 2.84077 3.41897 2.84403 3.40271 2.84403Z" fill="#EEB745"/>
<path fill-rule="evenodd" clip-rule="evenodd" d="M2.18139 1.79529L2.17749 1.71263L2.25946 1.70938L2.26337 1.79138L2.18139 1.79529Z" fill="#EEB745"/>
<path fill-rule="evenodd" clip-rule="evenodd" d="M2.20827 0.461643L2.18419 0.330854L2.31499 0.30678L2.33907 0.437569L2.20827 0.461643Z" fill="#EEB745"/>
<path fill-rule="evenodd" clip-rule="evenodd" d="M2.96934 3.83093C2.96284 3.83093 2.95568 3.82963 2.94918 3.82833C2.87761 3.80881 2.84378 3.76521 2.85029 3.7034C2.85745 3.64354 2.90689 3.60516 2.97065 3.60516C2.97195 3.60516 2.97325 3.60516 2.9752 3.60516C3.037 3.60646 3.07539 3.66697 3.07343 3.72943C3.07213 3.77888 3.02204 3.83093 2.96934 3.83093Z" fill="#EEB745"/>
<path fill-rule="evenodd" clip-rule="evenodd" d="M2.46186 2.34475C2.4111 2.34475 2.35384 2.30246 2.35384 2.24715C2.35384 2.17363 2.38638 2.12874 2.44819 2.11963C2.45405 2.11898 2.45991 2.11898 2.46511 2.11898C2.51912 2.11898 2.56142 2.15671 2.57573 2.21462C2.5907 2.27513 2.54125 2.32783 2.48073 2.34215C2.47422 2.3441 2.46837 2.34475 2.46186 2.34475Z" fill="#EEB745"/>
<path fill-rule="evenodd" clip-rule="evenodd" d="M2.63324 1.09923C2.60005 1.09923 2.57142 1.08427 2.5493 1.05499L2.57272 0.898187L2.73019 0.921609L2.70677 1.07841C2.68009 1.09207 2.65536 1.09923 2.63324 1.09923Z" fill="#EEB745"/>
<path fill-rule="evenodd" clip-rule="evenodd" d="M4.82482 4.71413L4.81701 4.57556L4.95496 4.56775L4.96212 4.70567L4.82482 4.71413Z" fill="#EEB745"/>
<path fill-rule="evenodd" clip-rule="evenodd" d="M0.152199 2.26982C0.115109 2.26982 0.0767184 2.25551 0.0461353 2.23013C-0.00917446 2.18654 -0.0195857 2.07919 0.0415804 2.0317C0.0786705 2.00242 0.115108 1.98811 0.149595 1.98811C0.182781 1.98811 0.213366 2.00112 0.241346 2.0278C0.296656 2.0818 0.295355 2.16247 0.2446 2.22688C0.221175 2.25616 0.187337 2.26982 0.152199 2.26982Z" fill="#EEB745"/>
<path fill-rule="evenodd" clip-rule="evenodd" d="M2.58638 4.37434C2.58507 4.37434 2.58442 4.37434 2.58312 4.37434C2.5057 4.37369 2.45755 4.29886 2.45885 4.22143C2.46016 4.15962 2.52131 4.09455 2.58768 4.09455C2.59548 4.09455 2.60394 4.0952 2.61175 4.09781C2.70023 4.12058 2.74383 4.17394 2.73602 4.25071C2.72821 4.32684 2.66575 4.37434 2.58638 4.37434Z" fill="#EEB745"/>
<path fill-rule="evenodd" clip-rule="evenodd" d="M4.17256 0.678325L3.98714 0.675721L3.98974 0.491567L4.17451 0.493518C4.2246 0.562495 4.22395 0.627568 4.17256 0.678325Z" fill="#EEB745"/>
<path fill-rule="evenodd" clip-rule="evenodd" d="M4.02836 4.41239L3.90995 4.35123L3.97111 4.23411L4.08887 4.29397C4.09863 4.35448 4.07716 4.39678 4.02836 4.41239Z" fill="#EEB745"/>
<path fill-rule="evenodd" clip-rule="evenodd" d="M4.00659 3.32615C3.99422 3.32615 3.98186 3.32484 3.9695 3.32224C3.89597 3.30728 3.86408 3.2266 3.8797 3.15308L3.96885 3.06133L3.94932 3.01123L4.0196 2.94096L4.08922 3.01188L4.05539 3.06849C4.12957 3.10623 4.1595 3.16413 4.13868 3.23245C4.11981 3.29296 4.06775 3.32615 4.00659 3.32615Z" fill="#EEB745"/>
<path fill-rule="evenodd" clip-rule="evenodd" d="M4.83181 0.242541C4.8188 0.242541 4.80578 0.240591 4.79212 0.235387C4.7342 0.213918 4.70947 0.154714 4.72574 0.0922591C4.7381 0.0454176 4.783 0.0213455 4.83051 0.0213455C4.84352 0.0213455 4.85589 0.0226466 4.86825 0.0258995L4.93463 0.169027C4.90795 0.21782 4.87281 0.242541 4.83181 0.242541Z" fill="#EEB745"/>
<path fill-rule="evenodd" clip-rule="evenodd" d="M5.05349 1.73307C5.01575 1.73307 4.97931 1.72071 4.95264 1.69338C4.87196 1.61205 4.85894 1.52486 4.9175 1.44743C4.95199 1.40254 5.00013 1.37976 5.05219 1.37976C5.08927 1.37976 5.12766 1.39148 5.1641 1.4136C5.24608 1.46435 5.24934 1.57691 5.19859 1.65954C5.18752 1.67646 5.17256 1.69143 5.15434 1.70314C5.14718 1.70639 5.14002 1.70964 5.13352 1.7142C5.10879 1.72591 5.08082 1.73307 5.05349 1.73307Z" fill="#EEB745"/>
<path fill-rule="evenodd" clip-rule="evenodd" d="M4.91855 1.89154L4.89966 1.85379L4.93678 1.83491L4.95632 1.87267L4.91855 1.89154Z" fill="#EEB745"/>
<path fill-rule="evenodd" clip-rule="evenodd" d="M4.27398 3.09373L4.25446 2.99939L4.34819 2.97987L4.36772 3.07357L4.27398 3.09373Z" fill="#EEB745"/>
<path fill-rule="evenodd" clip-rule="evenodd" d="M4.91038 2.88085C4.8785 2.88085 4.85052 2.86654 4.82905 2.83856L4.84987 2.68306L4.95723 2.6707L4.96764 2.62775C4.98586 2.58351 5.03921 2.55097 5.08996 2.55097C5.11143 2.55097 5.1329 2.55683 5.15047 2.56985L5.21033 2.63946L5.24091 2.61018L5.41788 2.65898C5.45432 2.71234 5.4361 2.80993 5.36909 2.83596C5.34371 2.84572 5.31964 2.85092 5.29817 2.85092C5.25262 2.85092 5.21684 2.82945 5.19276 2.78781L5.18886 2.77675C5.16283 2.80668 5.12705 2.82229 5.08801 2.82229C5.06784 2.82229 5.04702 2.81839 5.0262 2.80993L5.02359 2.80863L4.98521 2.85873C4.95853 2.8737 4.93315 2.88085 4.91038 2.88085Z" fill="#EEB745"/>
<path fill-rule="evenodd" clip-rule="evenodd" d="M4.37795 3.97518C4.34541 3.97518 4.31093 3.96607 4.28099 3.9498C4.20942 3.91076 4.17493 3.79104 4.23544 3.72401C4.27969 3.67521 4.32654 3.65114 4.37405 3.65114C4.40333 3.65114 4.43261 3.66025 4.46124 3.67912C4.53542 3.72922 4.55104 3.82162 4.50549 3.90491C4.47946 3.95306 4.43066 3.97518 4.37795 3.97518Z" fill="#EEB745"/>
<path fill-rule="evenodd" clip-rule="evenodd" d="M4.41049 0.685631L4.37471 0.597805L4.46319 0.561375L4.49832 0.649851L4.41049 0.685631Z" fill="#EEB745"/>
<path fill-rule="evenodd" clip-rule="evenodd" d="M3.66595 0.615638L3.64772 0.496569L3.76681 0.47835L3.78568 0.59807L3.66595 0.615638Z" fill="#EEB745"/>
<path fill-rule="evenodd" clip-rule="evenodd" d="M4.70307 1.89637C4.70111 1.89637 4.69916 1.89637 4.69721 1.89637C4.6367 1.89442 4.59571 1.84692 4.59245 1.78315C4.58855 1.72263 4.64516 1.68099 4.70567 1.67773C4.70697 1.67773 4.70827 1.67773 4.71022 1.67773C4.76358 1.67773 4.82214 1.73304 4.81108 1.79096C4.79871 1.85928 4.76098 1.89637 4.70307 1.89637Z" fill="#EEB745"/>
<path fill-rule="evenodd" clip-rule="evenodd" d="M3.36417 4.08957L3.20605 4.05443L3.24118 3.89631C3.26526 3.88525 3.28869 3.88004 3.30951 3.88004C3.3466 3.88004 3.37718 3.89696 3.3993 3.93145L3.36417 4.08957Z" fill="#EEB745"/>
<path fill-rule="evenodd" clip-rule="evenodd" d="M3.53639 1.06358C3.47914 1.06358 3.41733 1.00177 3.43164 0.94061C3.44726 0.87099 3.48695 0.833902 3.5442 0.833902C3.54745 0.833902 3.55071 0.834552 3.55396 0.834552C3.61707 0.839107 3.6587 0.890511 3.66001 0.956878C3.66066 1.02064 3.6008 1.06228 3.53704 1.06358C3.53639 1.06358 3.53639 1.06358 3.53639 1.06358Z" fill="#EEB745"/>
<path fill-rule="evenodd" clip-rule="evenodd" d="M4.85153 0.951737C4.82745 0.951737 4.80403 0.945232 4.78386 0.930917C4.69797 0.872359 4.67259 0.797534 4.71163 0.719455C4.73896 0.662849 4.79167 0.632919 4.85153 0.632919C4.87495 0.632919 4.89967 0.637474 4.92375 0.646583C5.00508 0.677814 5.0272 0.777364 4.99597 0.858695C4.9758 0.911398 4.91204 0.951737 4.85153 0.951737Z" fill="#EEB745"/>
<path fill-rule="evenodd" clip-rule="evenodd" d="M3.24892 0.142484L3.16174 0.0871823L3.21769 0L3.30423 0.0553021L3.24892 0.142484Z" fill="#EEB745"/>
<path fill-rule="evenodd" clip-rule="evenodd" d="M4.33089 0.242324L4.22547 0.168158C4.22416 0.108304 4.25019 0.0712212 4.29965 0.062113L4.40507 0.136929L4.33089 0.242324Z" fill="#EEB745"/>
<path fill-rule="evenodd" clip-rule="evenodd" d="M4.18912 1.74545L4.06942 1.65696C4.06942 1.58799 4.1013 1.54636 4.15854 1.53725C4.16375 1.5366 4.16895 1.53595 4.17416 1.53595C4.22425 1.53595 4.26458 1.57173 4.27824 1.62638L4.18912 1.74545Z" fill="#EEB745"/>
<path fill-rule="evenodd" clip-rule="evenodd" d="M5.21226 1.93549C5.2051 1.93549 5.19794 1.93419 5.19079 1.93224C5.11466 1.91142 5.07627 1.86457 5.08408 1.79756C5.08798 1.76177 5.1062 1.73315 5.13288 1.71428C5.13938 1.70972 5.14654 1.70647 5.1537 1.70322C5.17192 1.69476 5.19339 1.6902 5.21551 1.6902C5.21681 1.6902 5.21746 1.6902 5.21876 1.6902C5.28513 1.69216 5.32742 1.75852 5.32547 1.82489C5.32417 1.87889 5.27016 1.93549 5.21226 1.93549Z" fill="#EEB745"/>
<path fill-rule="evenodd" clip-rule="evenodd" d="M4.56969 2.58737C4.50137 2.56199 4.47209 2.51515 4.48445 2.45529C4.49616 2.40064 4.54236 2.36941 4.59897 2.36941C4.60482 2.36941 4.61133 2.36941 4.61718 2.37006C4.67835 2.37722 4.71023 2.44163 4.70242 2.50214L4.56969 2.58737Z" fill="#EEB745"/>
<path fill-rule="evenodd" clip-rule="evenodd" d="M5.16554 2.26999L5.15382 2.16332L5.26054 2.15162L5.27225 2.25894L5.16554 2.26999Z" fill="#EEB745"/>
<path fill-rule="evenodd" clip-rule="evenodd" d="M3.65935 0.444145L3.62812 0.334167L3.73807 0.301629L3.7693 0.411607L3.65935 0.444145Z" fill="#EEB745"/>
</g>
</svg>
