<svg width="12" height="14" viewBox="0 0 12 14" fill="none" xmlns="http://www.w3.org/2000/svg">
<mask id="mask0_1_1791" style="mask-type:alpha" maskUnits="userSpaceOnUse" x="-10" y="-35" width="42" height="49">
<path d="M9.96704 -34.307L-7.63506 -2.0852C-9.97824 1.67841 -9.74161 6.57888 -6.85379 10.1354C-4.80898 12.6535 -1.64917 14 1.59488 14H25.1038C28.6803 14 31.5533 10.9849 31.318 7.35758C31.1038 4.0473 28.207 1.54466 24.8903 1.54466H5.8144C5.32763 1.54466 5.01705 1.0251 5.24854 0.596845L18.6858 -25.4867C18.8954 -25.8757 19.2902 -26.2326 19.7313 -26.2545C19.7313 -26.2545 12.5012 -35.8869 9.96704 -34.307Z" fill="white"/>
</mask>
<g mask="url(#mask0_1_1791)">
<path fill-rule="evenodd" clip-rule="evenodd" d="M11.0035 11.744C10.9803 11.744 10.9565 11.7376 10.934 11.7247L10.9218 11.6566V11.5614L11.0659 11.535L11.0948 11.6958C11.073 11.7279 11.0395 11.744 11.0035 11.744Z" fill="#DC402E"/>
<path fill-rule="evenodd" clip-rule="evenodd" d="M10.9218 11.6567L10.9051 11.5648L10.9218 11.5615V11.6567Z" fill="#FFFFFE"/>
<path fill-rule="evenodd" clip-rule="evenodd" d="M3.6753 14H3.63222L3.54734 13.9787L3.45861 13.9112C3.43546 13.8527 3.46375 13.7935 3.52291 13.7633L3.61614 13.7697L3.74024 13.8585C3.74925 13.9286 3.72674 13.9781 3.6753 14Z" fill="#B2A184"/>
<path fill-rule="evenodd" clip-rule="evenodd" d="M2.57277 11.5984C2.57148 11.5984 2.56955 11.5984 2.56827 11.5984C2.50526 11.5971 2.46604 11.5347 2.46797 11.4724C2.46925 11.4216 2.52005 11.3695 2.57341 11.3695C2.58048 11.3695 2.58756 11.3701 2.59463 11.372C2.66664 11.392 2.702 11.4363 2.69429 11.4987C2.68657 11.5598 2.63706 11.5984 2.57277 11.5984Z" fill="#B2A184"/>
<path fill-rule="evenodd" clip-rule="evenodd" d="M2.12785 11.7957C2.08219 11.7957 2.04747 11.7739 2.02753 11.7314C2.00052 11.6729 2.02496 11.6112 2.08348 11.5771L2.23782 11.6324C2.26676 11.6819 2.24361 11.7681 2.18187 11.7867C2.16258 11.7925 2.14457 11.7957 2.12785 11.7957Z" fill="#B2A184"/>
<path fill-rule="evenodd" clip-rule="evenodd" d="M3.7243 13.4835C3.71722 13.4835 3.71014 13.4829 3.70307 13.4822C3.63939 13.4739 3.60659 13.4057 3.61495 13.3421C3.62074 13.2938 3.67219 13.2482 3.7243 13.2482C3.73394 13.2482 3.74423 13.2501 3.75388 13.254C3.82592 13.2816 3.85744 13.3305 3.84265 13.3935C3.83043 13.4501 3.78219 13.4835 3.7243 13.4835Z" fill="#B2A184"/>
<path fill-rule="evenodd" clip-rule="evenodd" d="M6.08894 13.5724C6.03943 13.5724 5.99635 13.5389 5.97577 13.4862C5.95262 13.4257 5.99763 13.3647 6.05743 13.3421C6.06772 13.3383 6.07865 13.3364 6.09023 13.3364C6.13974 13.3364 6.19568 13.3717 6.20211 13.4238C6.21176 13.5003 6.18282 13.5511 6.12045 13.5679C6.11016 13.5711 6.09923 13.5724 6.08894 13.5724Z" fill="#B2A184"/>
<path fill-rule="evenodd" clip-rule="evenodd" d="M1.47236 12.3813L1.36175 12.3222L1.42155 12.211L1.53152 12.2707L1.47236 12.3813Z" fill="#B2A184"/>
<path fill-rule="evenodd" clip-rule="evenodd" d="M1.07812 13.5216C1.0042 13.5216 0.921266 13.4599 0.923195 13.3795C0.925123 13.274 0.973981 13.211 1.06269 13.1994C1.06977 13.1988 1.07684 13.1981 1.08391 13.1981C1.16169 13.1981 1.22405 13.2547 1.24269 13.339C1.26198 13.4258 1.18998 13.4997 1.10319 13.519C1.09548 13.521 1.08648 13.5216 1.07812 13.5216Z" fill="#B2A184"/>
<path fill-rule="evenodd" clip-rule="evenodd" d="M3.22096 12.3128L3.10909 12.273L3.1496 12.1604L3.26147 12.2009L3.22096 12.3128Z" fill="#B2A184"/>
<path fill-rule="evenodd" clip-rule="evenodd" d="M4.93042 12.8444C4.91241 12.8444 4.89376 12.8411 4.87576 12.8341C4.81273 12.8109 4.79601 12.735 4.81981 12.672L4.94392 12.6032L4.93492 12.4386C4.95614 12.3827 5.02302 12.3402 5.08669 12.3402C5.11177 12.3402 5.13685 12.3473 5.15807 12.3614C5.2481 12.4232 5.27575 12.5016 5.2346 12.5846C5.20566 12.6437 5.15035 12.6752 5.08733 12.6752C5.06932 12.6752 5.05003 12.672 5.03138 12.6669L5.03846 12.7781C5.01659 12.8212 4.97608 12.8444 4.93042 12.8444Z" fill="#B2A184"/>
<path fill-rule="evenodd" clip-rule="evenodd" d="M0.857129 13.4493L0.832035 13.4094L0.871928 13.3843L0.897023 13.4242L0.857129 13.4493Z" fill="#B2A184"/>
<path fill-rule="evenodd" clip-rule="evenodd" d="M0.289247 12.3865L0.277672 12.2586L0.404995 12.2476L0.41657 12.375L0.289247 12.3865Z" fill="#B2A184"/>
<path fill-rule="evenodd" clip-rule="evenodd" d="M5.03437 13.9221L4.98743 13.7807L5.12825 13.7343L5.17454 13.8758L5.03437 13.9221Z" fill="#B2A184"/>
<path fill-rule="evenodd" clip-rule="evenodd" d="M4.77571 13.7814C4.74421 13.7814 4.7127 13.7724 4.6812 13.7538C4.59119 13.6997 4.56804 13.593 4.61498 13.494C4.64455 13.4322 4.70563 13.4039 4.77057 13.4039C4.80593 13.4039 4.84193 13.4123 4.87537 13.4284C4.95959 13.4689 5.00653 13.6071 4.9403 13.6882C4.88951 13.7499 4.83358 13.7814 4.77571 13.7814Z" fill="#B2A184"/>
<path fill-rule="evenodd" clip-rule="evenodd" d="M4.07589 14H4.05593L4.07138 13.9917L4.07589 14Z" fill="#B2A184"/>
<path fill-rule="evenodd" clip-rule="evenodd" d="M2.93497 13.2982C2.91632 13.2982 2.89703 13.2957 2.87838 13.2905C2.8025 13.2687 2.74398 13.1613 2.78706 13.0848C2.82565 13.0172 2.87645 12.9825 2.93368 12.9825C2.95297 12.9825 2.97291 12.9864 2.99348 12.9941C3.07515 13.0262 3.10859 13.1105 3.08351 13.1992C3.06551 13.2654 3.00184 13.2982 2.93497 13.2982Z" fill="#B2A184"/>
<path fill-rule="evenodd" clip-rule="evenodd" d="M2.52597 13.9999H2.23276C2.21346 13.9266 2.23597 13.8668 2.29706 13.8289C2.32213 13.8134 2.3485 13.8057 2.3755 13.8057C2.42502 13.8057 2.47324 13.8314 2.50925 13.8784C2.5369 13.915 2.54012 13.9594 2.52597 13.9999Z" fill="#B2A184"/>
<path fill-rule="evenodd" clip-rule="evenodd" d="M2.60874 13.1036L2.50714 13.0612L2.5483 12.9596L2.65118 13.0014L2.60874 13.1036Z" fill="#B2A184"/>
<path fill-rule="evenodd" clip-rule="evenodd" d="M2.87147 12.3825C2.78916 12.3825 2.72807 12.3426 2.69592 12.2654C2.65412 12.1658 2.70042 12.0622 2.80138 12.0082C2.82517 11.9954 2.85025 11.9896 2.87469 11.9896C2.94864 11.9896 3.02066 12.0417 3.0586 12.1137L3.06888 12.1407L3.08303 12.1677L3.07339 12.2256C3.06181 12.2911 3.01937 12.3542 2.95314 12.3709C2.9242 12.3786 2.89719 12.3825 2.87147 12.3825Z" fill="#B2A184"/>
<path fill-rule="evenodd" clip-rule="evenodd" d="M2.34322 13.2405C2.34129 13.2405 2.33936 13.2405 2.33679 13.2405C2.25255 13.2373 2.20175 13.1544 2.20496 13.0701C2.20754 13.0032 2.27506 12.9344 2.34643 12.9344C2.35608 12.9344 2.36572 12.9357 2.37537 12.9383C2.47118 12.9653 2.51748 13.0251 2.50719 13.1087C2.4969 13.1897 2.42874 13.2405 2.34322 13.2405Z" fill="#B2A184"/>
<path fill-rule="evenodd" clip-rule="evenodd" d="M1.63083 13.4377C1.60125 13.3978 1.55239 13.3702 1.50674 13.3702C1.50353 13.3702 1.50031 13.3702 1.4971 13.3708C1.46302 13.374 1.43023 13.3856 1.40387 13.4036C1.40066 13.3991 1.39809 13.3946 1.39551 13.3901C1.34922 13.2969 1.36015 13.2184 1.42188 13.1638L1.34408 13.1451C1.256 13.1014 1.22642 13.0024 1.26371 12.904C1.28943 12.839 1.35244 12.8075 1.42059 12.8075C1.44888 12.8075 1.47781 12.8133 1.50481 12.8236L1.60511 12.9528L1.64819 13.0133L1.58518 13.0647L1.53825 13.1168L1.68033 13.1901C1.74206 13.2634 1.71119 13.3708 1.63726 13.4319C1.63533 13.4339 1.63276 13.4358 1.63083 13.4377Z" fill="#B2A184"/>
<path fill-rule="evenodd" clip-rule="evenodd" d="M1.80119 12.5845C1.70732 12.5845 1.60187 12.5086 1.60058 12.4076C1.59866 12.2713 1.65909 12.1864 1.77226 12.1684C1.78447 12.1665 1.79604 12.1652 1.80762 12.1652C1.90535 12.1652 1.98443 12.2347 2.01144 12.3395C2.04101 12.4514 1.95164 12.5504 1.84041 12.5793C1.82755 12.5825 1.81469 12.5845 1.80119 12.5845Z" fill="#B2A184"/>
<path fill-rule="evenodd" clip-rule="evenodd" d="M1.16333 12.3719L1.12798 12.3365L1.16333 12.3024L1.19867 12.3365L1.16333 12.3719Z" fill="#B2A184"/>
<path fill-rule="evenodd" clip-rule="evenodd" d="M0.759802 12.9648L0.706445 12.9616L0.70966 12.9076L0.76366 12.9108L0.759802 12.9648Z" fill="#B2A184"/>
<path fill-rule="evenodd" clip-rule="evenodd" d="M0.176188 13.1957C0.156898 13.1957 0.136321 13.1912 0.115101 13.1822L0.0520844 13.1243L0 13.0034C0.00835929 12.8819 0.0694462 12.8118 0.17233 12.8041L0.21284 12.8092L0.260424 12.7494C0.285502 12.7288 0.314438 12.7192 0.34466 12.7192C0.396101 12.7192 0.450116 12.7475 0.486125 12.7912C0.537567 12.8536 0.524706 12.9777 0.444329 13.0176L0.368452 13.0414L0.279715 13.1481C0.248849 13.1796 0.214127 13.1957 0.176188 13.1957Z" fill="#B2A184"/>
<path fill-rule="evenodd" clip-rule="evenodd" d="M3.02367 8.28851L2.96707 8.21713L3.03782 8.16054L3.09442 8.23192L3.02367 8.28851Z" fill="#B2A184"/>
<path fill-rule="evenodd" clip-rule="evenodd" d="M3.48919 14.0002H3.30852C3.3098 13.9963 3.31109 13.9924 3.31302 13.9886C3.32974 13.9474 3.37024 13.9281 3.41268 13.9281C3.43197 13.9281 3.4519 13.932 3.47054 13.9397L3.48919 14.0002Z" fill="#B2A184"/>
<path fill-rule="evenodd" clip-rule="evenodd" d="M1.49828 13.6885C1.41084 13.6885 1.34783 13.6223 1.33819 13.5303C1.33369 13.477 1.36133 13.4319 1.40377 13.4036C1.43013 13.3856 1.46292 13.3741 1.49699 13.3709C1.50021 13.3702 1.50342 13.3702 1.50664 13.3702C1.55228 13.3702 1.60115 13.3979 1.63072 13.4377C1.65001 13.4641 1.66094 13.4956 1.65644 13.529C1.64101 13.6313 1.58572 13.6879 1.49828 13.6885Z" fill="#B2A184"/>
<path fill-rule="evenodd" clip-rule="evenodd" d="M1.95161 13.2168C1.88923 13.1757 1.86994 13.1229 1.89566 13.0663C1.91495 13.0245 1.95354 13.002 1.99727 13.002C2.01271 13.002 2.02943 13.0046 2.04551 13.0104C2.10467 13.031 2.12204 13.1017 2.10146 13.1609L1.95161 13.2168Z" fill="#B2A184"/>
<path fill-rule="evenodd" clip-rule="evenodd" d="M3.62019 6.99491L3.51027 6.98012L3.52441 6.87018L3.63497 6.88496L3.62019 6.99491Z" fill="#B2A184"/>
<path fill-rule="evenodd" clip-rule="evenodd" d="M2.78642 11.2289L2.7755 11.1852L2.81856 11.1756L2.82949 11.218L2.78642 11.2289Z" fill="#B2A184"/>
<path fill-rule="evenodd" clip-rule="evenodd" d="M0.404007 5.41593L0.310787 5.37992L0.346147 5.28669L0.44001 5.32205L0.404007 5.41593Z" fill="#B2A184"/>
<path fill-rule="evenodd" clip-rule="evenodd" d="M0.507518 0.125391L0.414301 0.0919545L0.44773 0L0.540305 0.0327938L0.507518 0.125391Z" fill="#B2A184"/>
</g>
</svg>
