<svg width="19" height="5" viewBox="0 0 19 5" fill="none" xmlns="http://www.w3.org/2000/svg">
<path d="M14.25 2.375C14.25 3.68125 15.3188 4.75 16.625 4.75C17.9313 4.75 19 3.68125 19 2.375C19 1.06875 17.9313 -4.67165e-08 16.625 -1.03815e-07C15.3188 -1.60912e-07 14.25 1.06875 14.25 2.375ZM11.875 2.375C11.875 1.06875 10.8063 -3.5816e-07 9.5 -4.15258e-07C8.19375 -4.72356e-07 7.125 1.06875 7.125 2.375C7.125 3.68125 8.19375 4.75 9.5 4.75C10.8063 4.75 11.875 3.68125 11.875 2.375ZM4.75 2.375C4.75 1.06875 3.68125 -6.69604e-07 2.37501 -7.26702e-07C1.06875 -7.838e-07 5.77751e-06 1.06875 5.72041e-06 2.375C5.66331e-06 3.68125 1.06875 4.75 2.37501 4.75C3.68125 4.75 4.75 3.68125 4.75 2.375Z" fill="black"/>
</svg>
