<svg width="10" height="15" viewBox="0 0 10 15" fill="none" xmlns="http://www.w3.org/2000/svg">
<path fill-rule="evenodd" clip-rule="evenodd" d="M1.92667 15C1.43522 15 0.953666 14.8127 0.588876 14.4624C0.0604913 13.9551 -0.0905654 13.68 0.0492817 12.6569L0.0400415 12.6549L0.0598304 12.5586L0.0736806 12.4894C0.147562 12.0118 0.274876 11.3838 0.449025 10.5262C0.675947 9.40481 1.01106 7.83482 1.3145 6.72528C1.75779 5.10121 3.18002 1.20265 6.79163 0.0865128C7.8108 -0.228143 8.89131 0.342464 9.20662 1.36097C9.52128 2.38014 8.95068 3.46131 7.93152 3.77597C6.05216 4.35712 5.19262 7.18242 5.03958 7.74313C4.58838 9.39359 4.02965 12.2981 3.87463 13.1398L3.85154 13.2889C3.64903 14.3404 3.01047 14.7507 2.51111 14.9096C2.31916 14.9703 2.12193 15 1.92667 15Z" fill="#D0C3AE"/>
</svg>
