<svg width="11" height="8" viewBox="0 0 11 8" fill="none" xmlns="http://www.w3.org/2000/svg">
<path fill-rule="evenodd" clip-rule="evenodd" d="M5.50002 7.77228C2.46683 7.77228 0 5.30544 0 2.27222C0 1.58803 0.123632 0.920676 0.368308 0.289564C0.411676 0.178229 0.537902 0.121257 0.647941 0.165273C0.759922 0.208641 0.814301 0.333573 0.77158 0.444908C0.546323 1.02683 0.432409 1.64175 0.432409 2.27222C0.432409 5.06723 2.70503 7.33989 5.50002 7.33989C8.29437 7.33989 10.5677 5.06723 10.5677 2.27222C10.5677 1.58803 10.4337 0.923902 10.1696 0.299263C10.1223 0.18987 10.1741 0.0630127 10.2841 0.0164075C10.3916 -0.0282558 10.5211 0.0209247 10.5677 0.131612C10.8544 0.809976 11 1.52977 11 2.27222C11 5.30544 8.53257 7.77228 5.50002 7.77228Z" fill="#FFFFFE"/>
</svg>
