<svg width="8" height="6" viewBox="0 0 8 6" fill="none" xmlns="http://www.w3.org/2000/svg">
<mask id="mask0_1_1895" style="mask-type:alpha" maskUnits="userSpaceOnUse" x="-8" y="-4" width="32" height="20">
<path d="M20.3959 15.0589L0.837813 10.7677L-7.60311 8.88066L-4.92946 -3.07452L3.48702 -1.19262L23.0213 3.09409L20.3959 15.0589Z" fill="white"/>
</mask>
<g mask="url(#mask0_1_1895)">
<path fill-rule="evenodd" clip-rule="evenodd" d="M5.56266 4.33671C5.55365 4.33671 5.54465 4.33542 5.53564 4.33413C5.4784 4.3232 5.42887 4.24859 5.45524 4.19071C5.48033 4.13411 5.51763 4.10517 5.56394 4.10517C5.57488 4.10517 5.58645 4.10646 5.59867 4.11032C5.66042 4.12768 5.69129 4.18685 5.67907 4.25374C5.66878 4.30776 5.61733 4.33671 5.56266 4.33671Z" fill="#EEB745"/>
<path fill-rule="evenodd" clip-rule="evenodd" d="M3.3854 2.85051L3.26449 2.83893L3.27542 2.71803L3.39633 2.72961L3.3854 2.85051Z" fill="#EEB745"/>
<path fill-rule="evenodd" clip-rule="evenodd" d="M4.80103 1.74704L4.76823 1.68143L4.83383 1.64862L4.86663 1.71423L4.80103 1.74704Z" fill="#EEB745"/>
<path fill-rule="evenodd" clip-rule="evenodd" d="M7.56724 5.15611C7.56466 5.15611 7.56145 5.15611 7.55888 5.15546C7.48556 5.14775 7.44375 5.1098 7.44118 5.0474C7.44118 5.04162 7.44118 5.03583 7.44182 5.03004L7.44825 5.02296L7.44375 5.01846C7.45404 4.97086 7.49456 4.93742 7.54923 4.93034C7.55373 4.9297 7.55759 4.92905 7.56209 4.92905C7.6174 4.92905 7.65921 4.98051 7.66693 5.03776C7.67079 5.06542 7.65985 5.09565 7.63991 5.1188L7.57881 5.1381L7.58396 5.15418C7.57881 5.15546 7.57303 5.15611 7.56724 5.15611Z" fill="#EEB745"/>
<path fill-rule="evenodd" clip-rule="evenodd" d="M6.75754 4.73578L6.63791 4.71391L6.65978 4.59428L6.77941 4.61614L6.75754 4.73578Z" fill="#EEB745"/>
<path fill-rule="evenodd" clip-rule="evenodd" d="M5.35694 3.7036L5.21157 3.65214L5.26303 3.50743C5.28104 3.50164 5.29841 3.49843 5.31449 3.49843C5.35694 3.49843 5.38911 3.51901 5.40776 3.55888L5.35694 3.7036Z" fill="#EEB745"/>
<path fill-rule="evenodd" clip-rule="evenodd" d="M6.51715 2.93336C6.46826 2.93336 6.42774 2.89026 6.41552 2.8388C6.40395 2.7867 6.44768 2.71724 6.50685 2.71724V2.72753L6.56474 2.72688C6.6014 2.74039 6.62391 2.76869 6.62906 2.80922C6.63742 2.86839 6.59819 2.91663 6.53708 2.93078C6.53065 2.93207 6.52358 2.93336 6.51715 2.93336Z" fill="#EEB745"/>
<path fill-rule="evenodd" clip-rule="evenodd" d="M6.24007 5.51856L6.13715 5.47933L6.17639 5.37577L6.27931 5.41565L6.24007 5.51856Z" fill="#EEB745"/>
<path fill-rule="evenodd" clip-rule="evenodd" d="M5.46101 5.94414L5.36001 5.91005L5.3941 5.80973L5.4951 5.84317L5.46101 5.94414Z" fill="#EEB745"/>
<path fill-rule="evenodd" clip-rule="evenodd" d="M6.9605 1.46441L6.91613 1.38466L6.99523 1.34028L7.0396 1.41939L6.9605 1.46441Z" fill="#EEB745"/>
<path fill-rule="evenodd" clip-rule="evenodd" d="M6.67902 2.81421L6.66551 2.68621L6.79351 2.6727L6.80701 2.8007L6.67902 2.81421Z" fill="#EEB745"/>
<path fill-rule="evenodd" clip-rule="evenodd" d="M4.53714 5.14165L4.5365 5.08052L4.5976 5.07988L4.59825 5.141L4.53714 5.14165Z" fill="#EEB745"/>
<path fill-rule="evenodd" clip-rule="evenodd" d="M4.5887 4.15056L4.57391 4.0528L4.67166 4.03801L4.68645 4.13577L4.5887 4.15056Z" fill="#EEB745"/>
<path fill-rule="evenodd" clip-rule="evenodd" d="M0.00450478 5.7729L0 5.73692L0.0360388 5.73306L0.0398998 5.7684L0.00450478 5.7729Z" fill="#EEB745"/>
<path fill-rule="evenodd" clip-rule="evenodd" d="M7.28862 4.22243C7.28412 4.22243 7.27897 4.22243 7.27382 4.22179L7.187 4.09251C7.20822 4.03398 7.24488 4.00311 7.29248 4.00311C7.30019 4.00311 7.30855 4.00375 7.31692 4.00568C7.37609 4.01726 7.41018 4.07129 7.4031 4.13496C7.39731 4.19027 7.34457 4.22243 7.28862 4.22243Z" fill="#EEB745"/>
<path fill-rule="evenodd" clip-rule="evenodd" d="M5.93362 3.55437C5.92397 3.55437 5.91368 3.55372 5.90403 3.55115C5.84422 3.53957 5.81786 3.47398 5.83007 3.41481L5.96706 3.34085C6.03266 3.37108 6.05838 3.41931 6.04102 3.47783C6.02623 3.52671 5.98378 3.55437 5.93362 3.55437Z" fill="#EEB745"/>
<path fill-rule="evenodd" clip-rule="evenodd" d="M4.7475 5.55586L4.65488 5.48189L4.7282 5.38927L4.82082 5.46324L4.7475 5.55586Z" fill="#EEB745"/>
<path fill-rule="evenodd" clip-rule="evenodd" d="M4.945 4.62086L4.82858 4.59964L4.84981 4.48387L4.96622 4.50445L4.945 4.62086Z" fill="#EEB745"/>
<path fill-rule="evenodd" clip-rule="evenodd" d="M4.70193 2.92456L4.61574 2.84415L4.6955 2.75796L4.78233 2.83837L4.70193 2.92456Z" fill="#EEB745"/>
<path fill-rule="evenodd" clip-rule="evenodd" d="M7.2394 1.59339L7.16479 1.50141L7.25677 1.42744L7.33074 1.51942L7.2394 1.59339Z" fill="#EEB745"/>
<path fill-rule="evenodd" clip-rule="evenodd" d="M7.38392 5.09509L7.31188 5.03079L7.3762 4.95813L7.44374 5.01857L7.44825 5.02307L7.44181 5.03015L7.38392 5.09509Z" fill="#EEB745"/>
<path fill-rule="evenodd" clip-rule="evenodd" d="M7.56851 4.13925L7.49454 4.07686L7.55758 4.00354L7.63091 4.06592L7.56851 4.13925Z" fill="#EEB745"/>
<path fill-rule="evenodd" clip-rule="evenodd" d="M3.08738 5.41783L2.93879 5.41655L2.94007 5.26794L3.08866 5.26987L3.08738 5.41783Z" fill="#EEB745"/>
<path fill-rule="evenodd" clip-rule="evenodd" d="M6.04489 4.35718L5.90726 4.35139L5.91305 4.21374L6.05068 4.22017L6.04489 4.35718Z" fill="#EEB745"/>
<path fill-rule="evenodd" clip-rule="evenodd" d="M7.40491 4.53004L7.37469 4.40013L7.50523 4.3699L7.53481 4.49981L7.40491 4.53004Z" fill="#EEB745"/>
<path fill-rule="evenodd" clip-rule="evenodd" d="M7.02637 4.92071L6.9717 4.84289L7.04952 4.78822L7.10419 4.8654L7.02637 4.92071Z" fill="#EEB745"/>
<path fill-rule="evenodd" clip-rule="evenodd" d="M7.32161 3.02435L7.2618 2.98576L7.26244 2.97355L7.20005 3.02371L7.06692 2.94911C7.04827 2.89895 7.083 2.82435 7.14217 2.81663C7.15053 2.81534 7.15954 2.8147 7.16725 2.8147C7.22321 2.8147 7.26051 2.84107 7.27466 2.89123L7.2753 2.9401L7.30039 2.92531L7.36084 2.9639L7.32161 3.02435Z" fill="#EEB745"/>
<path fill-rule="evenodd" clip-rule="evenodd" d="M7.14293 3.5269C7.09598 3.5269 7.05674 3.50568 7.02844 3.46258C6.98406 3.3944 7.004 3.31207 7.07089 3.25869C7.0934 3.24068 7.11913 3.23296 7.14486 3.23296C7.1931 3.23296 7.24199 3.25997 7.27479 3.30114L7.29409 3.33973L7.32046 3.3423L7.32818 3.38154L7.30052 3.39054L7.23234 3.50503C7.20018 3.51983 7.16995 3.5269 7.14293 3.5269Z" fill="#EEB745"/>
<path fill-rule="evenodd" clip-rule="evenodd" d="M7.43072 3.73395C7.4037 3.73395 7.37733 3.72558 7.35096 3.70822C7.28214 3.66256 7.26671 3.57766 7.30787 3.50048C7.33231 3.45546 7.37798 3.43488 7.42621 3.43488C7.45644 3.43488 7.48796 3.4426 7.51562 3.45739C7.52848 3.46447 7.5407 3.47476 7.55035 3.48633C7.5317 3.49727 7.51433 3.51463 7.49954 3.53971L7.55356 3.67092C7.51433 3.71272 7.47252 3.73395 7.43072 3.73395Z" fill="#EEB745"/>
<path fill-rule="evenodd" clip-rule="evenodd" d="M6.65905 3.38954L6.6108 3.38311L6.61659 3.33423L6.66548 3.34066L6.65905 3.38954Z" fill="#EEB745"/>
<path fill-rule="evenodd" clip-rule="evenodd" d="M6.84209 3.65258C6.83245 3.65258 6.8228 3.65194 6.81379 3.65001C6.74883 3.63972 6.69095 3.55675 6.71925 3.48921C6.7469 3.42425 6.79 3.39017 6.84338 3.39017C6.85496 3.39017 6.86718 3.39145 6.88004 3.39467C6.95079 3.41332 6.98745 3.47957 6.97459 3.55546C6.96494 3.61849 6.90448 3.65258 6.84209 3.65258Z" fill="#EEB745"/>
<path fill-rule="evenodd" clip-rule="evenodd" d="M6.90706 3.9102L6.84596 3.85938L6.89677 3.79763L6.95852 3.84909L6.90706 3.9102Z" fill="#EEB745"/>
<path fill-rule="evenodd" clip-rule="evenodd" d="M6.28283 3.74828L6.21272 3.6724L6.28862 3.60294L6.35809 3.67819L6.28283 3.74828Z" fill="#EEB745"/>
<path fill-rule="evenodd" clip-rule="evenodd" d="M6.51575 4.04177L6.47009 3.93371L6.5775 3.88804L6.62381 3.99546L6.51575 4.04177Z" fill="#EEB745"/>
<path fill-rule="evenodd" clip-rule="evenodd" d="M6.6014 5.13122C6.54352 5.06819 6.5358 5.00387 6.58146 4.94727C6.60655 4.91575 6.64192 4.89967 6.67922 4.89967C6.70752 4.89967 6.73775 4.90932 6.76476 4.92733C6.82521 4.96721 6.82521 5.05147 6.7847 5.11128L6.6014 5.13122Z" fill="#EEB745"/>
<path fill-rule="evenodd" clip-rule="evenodd" d="M6.99792 5.16614L6.95612 5.09409L7.02815 5.05228L7.06995 5.12433L6.99792 5.16614Z" fill="#EEB745"/>
<path fill-rule="evenodd" clip-rule="evenodd" d="M6.57155 5.27708L6.55805 5.24943L6.58634 5.23592L6.59985 5.26422L6.57155 5.27708Z" fill="#EEB745"/>
<path fill-rule="evenodd" clip-rule="evenodd" d="M7.40504 5.42585L7.29053 5.41942L7.29697 5.30493L7.41148 5.31136L7.40504 5.42585Z" fill="#EEB745"/>
<path fill-rule="evenodd" clip-rule="evenodd" d="M7.55512 5.6687L7.48694 5.55614L7.60014 5.48796L7.66832 5.60052L7.55512 5.6687Z" fill="#EEB745"/>
<path fill-rule="evenodd" clip-rule="evenodd" d="M6.83538 5.99998C6.80001 5.99998 6.77236 5.98326 6.75499 5.94982L6.75242 5.9421L6.63086 5.96332L6.62893 5.96204L6.59871 5.9987L6.48358 5.9794L6.50223 5.86428L6.58263 5.85785L6.59163 5.82633L6.72862 5.7871L6.77171 5.84048L6.79486 5.8199L6.92542 5.85978L6.88555 5.99034C6.86754 5.99677 6.85082 5.99998 6.83538 5.99998Z" fill="#EEB745"/>
<path fill-rule="evenodd" clip-rule="evenodd" d="M6.81858 5.73404C6.81665 5.73404 6.81472 5.73404 6.81279 5.73404L6.72275 5.63435L6.75555 5.56811L6.71053 5.51023L6.7697 5.46328L6.77678 5.4652L6.77163 5.38288L6.76584 5.37774L6.77549 5.28319L6.78321 5.27869L6.78256 5.27676L6.84367 5.20151L6.91892 5.26326L6.91184 5.30056L6.96201 5.31985C7.02118 5.35458 7.02504 5.43433 6.99031 5.4935L6.87647 5.54688L6.85846 5.55139L6.91313 5.64336C6.90155 5.70253 6.86811 5.73404 6.81858 5.73404Z" fill="#EEB745"/>
<path fill-rule="evenodd" clip-rule="evenodd" d="M6.80671 5.54692L6.81699 5.52182L6.81763 5.52246L6.82084 5.53276L6.83563 5.54627L6.82342 5.5437L6.80671 5.54692Z" fill="#EEB745"/>
<path fill-rule="evenodd" clip-rule="evenodd" d="M6.35493 2.86069L6.26682 2.84718L6.28097 2.75907L6.36908 2.77322L6.35493 2.86069Z" fill="#EEB745"/>
<path fill-rule="evenodd" clip-rule="evenodd" d="M7.21827 3.89212L7.11217 3.82588L7.17904 3.71912L7.28515 3.786L7.21827 3.89212Z" fill="#EEB745"/>
<path fill-rule="evenodd" clip-rule="evenodd" d="M2.28015 3.59186L2.2274 3.5687L2.25056 3.51658L2.3033 3.5391L2.28015 3.59186Z" fill="#EEB745"/>
<path fill-rule="evenodd" clip-rule="evenodd" d="M7.31464 4.93161L7.16479 4.90524L7.19116 4.75603C7.2156 4.74316 7.23875 4.73737 7.25933 4.73737C7.29213 4.73737 7.32043 4.75217 7.34101 4.78175L7.31464 4.93161Z" fill="#EEB745"/>
<path fill-rule="evenodd" clip-rule="evenodd" d="M6.94408 2.02219L6.85725 1.94823L6.93121 1.8614L7.01804 1.93472L6.94408 2.02219Z" fill="#EEB745"/>
<path fill-rule="evenodd" clip-rule="evenodd" d="M7.16337 2.74478L7.05917 2.69976L7.10419 2.59493L7.20903 2.63995L7.16337 2.74478Z" fill="#EEB745"/>
<path fill-rule="evenodd" clip-rule="evenodd" d="M5.99433 5.49086L5.97632 5.37703L6.08953 5.35903L6.10754 5.47285L5.99433 5.49086Z" fill="#EEB745"/>
<path fill-rule="evenodd" clip-rule="evenodd" d="M6.5067 2.72765V2.71736L6.50542 2.61253L6.62055 2.61125L6.62184 2.72636L6.56459 2.727L6.5067 2.72765Z" fill="#EEB745"/>
<path fill-rule="evenodd" clip-rule="evenodd" d="M7.55654 3.67686L7.55396 3.67107L7.49994 3.53985C7.51473 3.51476 7.5321 3.4974 7.55075 3.48646C7.5649 3.47874 7.57969 3.47424 7.59577 3.47424C7.60928 3.47424 7.62278 3.47746 7.63757 3.48325L7.67552 3.51219L7.67938 3.48389L7.74562 3.46138L7.76749 3.52763L7.70189 3.5495L7.69353 3.54242L7.69417 3.62025L7.55654 3.67686Z" fill="#EEB745"/>
<path fill-rule="evenodd" clip-rule="evenodd" d="M5.77557 5.79627L5.73441 5.69142L5.83859 5.65026L5.88039 5.75446L5.77557 5.79627Z" fill="#EEB745"/>
<path fill-rule="evenodd" clip-rule="evenodd" d="M7.01087 0.609492L6.96005 0.480205L7.08999 0.430035L7.14017 0.559321L7.01087 0.609492Z" fill="#EEB745"/>
<path fill-rule="evenodd" clip-rule="evenodd" d="M5.23446 0.0996729L5.21709 0.0180054L5.29876 0L5.31612 0.0816675L5.23446 0.0996729Z" fill="#EEB745"/>
</g>
</svg>
