<svg width="77" height="105" viewBox="0 0 77 105" fill="none" xmlns="http://www.w3.org/2000/svg">
<path fill-rule="evenodd" clip-rule="evenodd" d="M13.5374 0.61385C9.90659 0.61385 6.36064 2.3476 3.39924 5.6106C-0.159571 9.53147 0.355538 14.6491 1.41405 18.2517C2.63912 22.422 5.24746 26.8387 8.39149 30.0657C9.32267 31.0213 10.3426 31.9274 11.3284 32.804C12.7156 34.0361 14.149 35.3094 15.376 36.7538C16.8422 38.4804 19.1888 41.9569 18.4326 45.8501C18.138 47.3672 17.3972 48.7363 16.6808 50.0604C16.3548 50.6623 16.0178 51.2855 15.731 51.9093C13.6667 56.3928 13.8995 61.8442 16.3387 66.1362C18.7779 70.4274 23.3425 73.4171 28.2511 73.938C28.4589 73.9592 28.6679 73.9773 28.8775 73.9953C29.6801 74.0647 30.5096 74.1361 31.291 74.4313C32.1913 74.7715 33.271 75.61 33.3501 76.8544C33.4247 78.0248 32.6003 78.9599 31.873 79.7849L31.7836 79.8865C28.3592 83.781 26.0364 90.4119 29.028 95.7662C30.2486 97.9501 32.3103 99.8311 35.1559 101.355C44.6652 106.448 57.7339 103.594 65.7274 98.1417L65.728 98.1411L65.9544 97.9854C71.5177 94.1141 75.2418 88.4247 76.1717 82.3772C77.1414 76.0647 74.7948 69.7323 69.892 65.4378C69.0392 64.6905 67.9685 63.8693 66.8348 63.0005C62.6399 59.7838 57.4194 55.7806 57.112 51.0064C57.0072 49.3729 57.1602 47.3646 57.3371 45.0392C57.8985 37.6689 58.667 27.5744 50.8703 22.4413C46.6053 19.6336 42.4009 18.6812 38.6916 17.8414C33.4312 16.6504 28.8884 15.6214 26.1984 9.81056C23.8917 4.82796 19.8094 1.43957 15.277 0.746968C14.6963 0.65758 14.1162 0.61385 13.5374 0.61385ZM46.5745 104.624C42.4755 104.624 38.4292 103.804 34.8665 101.895C31.9161 100.315 29.772 98.3533 28.4929 96.0652C25.3553 90.4504 27.7605 83.5328 31.3231 79.482L31.4132 79.3798C32.0936 78.6074 32.7971 77.81 32.7386 76.893C32.682 76.0023 31.862 75.3026 31.0743 75.0055C30.372 74.7399 29.6203 74.675 28.8248 74.6068C28.6113 74.5875 28.3984 74.5695 28.1868 74.5477C23.0846 74.0062 18.3406 70.8995 15.8056 66.4384C13.2705 61.9786 13.0281 56.3124 15.1741 51.6527C15.4692 51.0109 15.8107 50.3794 16.1413 49.7691C16.868 48.4263 17.5541 47.1582 17.8306 45.7331C18.3477 43.0733 17.2821 39.9454 14.9085 37.1505C13.7098 35.7396 12.2924 34.4798 10.9214 33.2625C9.92717 32.3789 8.89888 31.4651 7.95291 30.4934C1.94073 24.3223 -3.58655 12.3951 2.94523 5.19838C6.52076 1.25886 10.9355 -0.538557 15.3696 0.140537C20.1059 0.864647 24.3618 4.3836 26.7547 9.55333C29.318 15.0903 33.5141 16.0401 38.8266 17.2433C42.5874 18.0947 46.8497 19.06 51.2079 21.9288C59.3056 27.2612 58.521 37.5634 57.9487 45.0862C57.7731 47.3884 57.622 49.3768 57.7242 50.9678C58.0136 55.4636 63.1113 59.3729 67.2077 62.5137C68.3499 63.3889 69.4283 64.2159 70.2958 64.9767C75.3569 69.4094 77.78 75.9496 76.7774 82.4698C75.8231 88.6832 72.0058 94.5218 66.3042 98.489L66.0734 98.6478C60.9113 102.169 53.6644 104.624 46.5745 104.624Z" fill="#F7D471"/>
</svg>
