<svg width="2" height="1" viewBox="0 0 2 1" fill="none" xmlns="http://www.w3.org/2000/svg">
<path fill-rule="evenodd" clip-rule="evenodd" d="M1.249 1.00001L1.21706 0.996677C1.11857 0.979375 1.05269 0.884881 1.06999 0.786391C1.10526 0.590742 0.973502 0.403744 0.777852 0.369139C0.684686 0.352502 0.588192 0.374456 0.509666 0.428359C0.430475 0.483594 0.377898 0.566112 0.361261 0.660609C0.343959 0.759765 0.254119 0.826313 0.150305 0.808345C0.0518144 0.791042 -0.0140676 0.696549 0.00256927 0.598059C0.0365085 0.407733 0.142322 0.241367 0.301371 0.130898C0.459088 0.0197637 0.650742 -0.0221665 0.841733 0.0111072C1.23436 0.0803166 1.49723 0.456316 1.42868 0.849612C1.41271 0.93812 1.33618 1.00001 1.249 1.00001Z" fill="#131927"/>
</svg>
