<svg width="93" height="93" viewBox="0 0 93 93" fill="none" xmlns="http://www.w3.org/2000/svg">
<path fill-rule="evenodd" clip-rule="evenodd" d="M49.9883 10.6912C47.2555 10.6912 44.2947 10.9448 41.0905 11.9711C32.2349 14.8063 30.2677 24.697 28.8308 31.9184C28.3773 34.197 27.9859 36.1642 27.4478 37.7036C25.8732 42.2018 19.7921 44.6431 14.9057 46.6052C13.5854 47.135 12.3375 47.636 11.319 48.1241C5.46528 50.9305 1.51604 56.3768 0.755019 62.693C0.0260263 68.7447 2.07464 75.2012 6.37556 80.406L6.55108 80.6168C12.7584 87.9899 24.5299 94.2306 35.0196 91.8924C38.1578 91.1929 40.6395 89.9412 42.3966 88.1719C46.702 83.8364 46.2504 76.8526 44.0083 72.1994L43.9488 72.0751C43.4728 71.0892 42.9328 69.9721 43.3178 68.8703C43.7265 67.698 44.9878 67.1829 45.9429 67.0971C46.7699 67.0234 47.5848 67.1765 48.3727 67.3251C48.5789 67.3642 48.7859 67.4033 48.9921 67.4379C53.8408 68.2534 59.0206 66.609 62.5112 63.1453C66.0017 59.6816 67.6859 54.514 66.9075 49.6589C66.7993 48.9844 66.643 48.2977 66.4918 47.6334C66.1593 46.1703 65.8147 44.6578 65.9383 43.1223C66.2561 39.1846 69.4398 36.4775 71.309 35.2143C72.8721 34.1573 74.5895 33.3194 76.2499 32.509C77.4312 31.9325 78.6528 31.3368 79.802 30.6693C83.6827 28.4157 87.3687 24.877 89.662 21.2045C91.6433 18.0317 93.5087 13.2599 91.1456 8.54455C88.8651 3.99507 85.2803 1.20786 81.0524 0.69539C76.5094 0.143201 71.6927 2.30263 68.1458 6.46455C64.0076 11.3196 59.3716 11.089 54.008 10.8218C52.7261 10.7578 51.3873 10.6912 49.9883 10.6912ZM30.3958 93C21.0406 93.0006 11.4875 87.4282 6.08345 81.0101L5.90344 80.7942C1.49746 75.4613 -0.59983 68.8369 0.14902 62.62C0.935025 56.0956 5.01174 50.4706 11.0551 47.5738C12.0915 47.0767 13.3478 46.5719 14.6783 46.0383C19.45 44.1229 25.3883 41.7387 26.8706 37.5024C27.3953 36.0035 27.7828 34.0554 28.2312 31.7993C29.6975 24.4286 31.7058 14.3348 40.904 11.3894C45.8558 9.80459 50.2041 10.0198 54.0381 10.2114C59.4581 10.4817 63.7379 10.6944 67.6807 6.06866C71.3622 1.7498 76.3876 -0.48522 81.1254 0.0887496C85.5641 0.626846 89.316 3.53256 91.6907 8.27037C94.182 13.2394 92.2435 18.2226 90.1802 21.528C87.8369 25.2813 84.0715 28.8961 80.1082 31.1971C78.9404 31.8761 77.7085 32.477 76.5177 33.058C74.8758 33.8594 73.1789 34.6877 71.6505 35.7203C68.6243 37.7657 66.764 40.4812 66.5475 43.1717C66.4316 44.6136 66.7499 46.0146 67.0875 47.4982C67.2406 48.1715 67.3989 48.8684 67.5103 49.5622C68.3194 54.6081 66.5693 59.9788 62.9416 63.579C59.3146 67.1784 53.9324 68.8895 48.8909 68.04C48.6808 68.0048 48.47 67.9651 48.2593 67.9254C47.4784 67.7787 46.7405 67.639 45.9974 67.7056C45.1614 67.7806 44.1877 68.2316 43.8943 69.0714C43.5932 69.9343 44.0532 70.8875 44.4984 71.8093L44.5586 71.9342C46.891 76.7751 47.3445 84.0561 42.8297 88.6024C40.9892 90.4562 38.4064 91.7637 35.1528 92.4882C33.5878 92.8373 31.9941 93 30.3958 93Z" fill="#F7D471"/>
</svg>
