<svg width="211" height="208" viewBox="0 0 211 208" fill="none" xmlns="http://www.w3.org/2000/svg">
<path fill-rule="evenodd" clip-rule="evenodd" d="M198.297 26.4821C197.859 25.6962 197.407 24.9148 196.943 24.1384C190.704 13.6884 181.926 4.1388 170.769 1.08916C152.166 -3.99571 134.299 9.82016 119.66 19.8715C104.899 30.0079 89.3586 40.7146 71.7347 41.5908C67.887 41.7822 64.022 41.4929 60.1608 41.2036C55.2315 40.8337 50.3079 40.4644 45.4317 41.0948C35.3669 42.3972 26.0752 47.9999 19.0672 55.7702C12.0597 63.5405 7.23148 73.3788 4.1524 83.7213C-4.32962 112.213 0.0397161 145.776 18.5801 169.162C35.3259 190.285 60.8847 204.787 86.4107 207.548C114.211 210.555 140.385 198.296 160.662 178.876C176.84 163.382 191.27 144.659 200.611 123.498C214.083 92.9745 214.934 56.272 198.297 26.4821Z" fill="#FFFAEB"/>
</svg>
