<svg width="32" height="4" viewBox="0 0 32 4" fill="none" xmlns="http://www.w3.org/2000/svg">
<path fill-rule="evenodd" clip-rule="evenodd" d="M20.5032 4C20.3371 4 20.1691 3.99807 20.0011 3.99225C17.4904 3.91666 15.2394 3.33517 12.8566 2.71944C9.10608 1.75094 5.22758 0.748198 0.250086 1.89244C0.138312 1.92022 0.0304156 1.84979 0.00521803 1.73931C-0.0199796 1.62947 0.0485059 1.52028 0.158342 1.49508C5.23275 0.328877 9.16035 1.34325 12.9581 2.32403C15.3189 2.93394 17.5486 3.50961 20.0134 3.58456C25.416 3.7351 29.8722 1.15653 31.5384 0.0355472C31.6321 -0.0290625 31.7587 -0.00256816 31.8214 0.0904698C31.8847 0.184154 31.8602 0.311427 31.7665 0.373453C30.1183 1.4828 25.7934 4 20.5032 4Z" fill="#131927"/>
</svg>
