<svg width="28" height="41" viewBox="0 0 28 41" fill="none" xmlns="http://www.w3.org/2000/svg">
<path fill-rule="evenodd" clip-rule="evenodd" d="M19.0757 40.9999C17.7846 40.9999 16.582 40.3977 15.7721 39.2975L0.0343751 15.8934C-0.0277762 15.7999 -0.00342919 15.6743 0.0894773 15.6115C0.124718 15.5878 0.163804 15.5769 0.202889 15.5769C0.268243 15.5769 0.332317 15.6089 0.371402 15.6666L16.104 39.0643C16.2571 39.2719 16.4263 39.4603 16.6083 39.6281C16.5942 39.6307 16.5813 39.6358 16.5692 39.6422C16.4897 39.6884 16.441 39.7845 16.4878 39.8639C16.523 39.9254 16.5801 39.9607 16.6409 39.9607C16.6537 39.9607 16.6672 39.9594 16.68 39.9555C16.6704 39.9901 16.6742 40.0273 16.6973 40.0581C16.7287 40.0991 16.7723 40.1221 16.8165 40.1221C16.8396 40.1221 16.8633 40.1157 16.8857 40.1016C16.9498 40.0619 16.9651 39.9953 16.9299 39.9133C16.9107 39.8697 16.862 39.8473 16.8152 39.8473C16.8088 39.8473 16.803 39.8473 16.7973 39.8479C16.8018 39.8319 16.8037 39.814 16.803 39.7947C17.4534 40.315 18.2466 40.5937 19.0802 40.5937C19.4249 40.5937 19.7767 40.5463 20.1278 40.4483C21.6668 40.0196 22.7125 38.7657 22.8573 37.1754L26.7447 0.181321C26.7556 0.0749592 26.8466 0 26.9516 0C26.9568 0 26.9625 0.000625717 26.9676 0.000625717C27.0791 0.0127997 27.1599 0.112754 27.1483 0.224241L23.2616 37.2151C23.1162 38.8118 22.148 40.1036 20.6961 40.6841C20.6622 40.6495 20.6167 40.6322 20.5622 40.6322C20.5353 40.6322 20.5058 40.636 20.4738 40.645C20.4059 40.6636 20.363 40.734 20.3553 40.8045C20.3162 40.8167 20.2765 40.8282 20.2367 40.8398C19.8472 40.9474 19.4576 40.9999 19.0757 40.9999Z" fill="#EFA485"/>
</svg>
